<svg width="449" height="149" viewBox="0 0 449 149" fill="none" xmlns="http://www.w3.org/2000/svg">
<path d="M116.349 113.403C117.548 116.325 118.743 119.245 119.979 122.263C120.295 122.162 120.726 122.162 120.889 121.956C125.852 115.684 132.296 111.118 139.119 107.258C150.437 100.861 153.585 90.8504 151.985 79.0468C150.95 71.4214 148.465 64.001 146.788 56.4559C145.495 50.63 144.371 44.7727 141.415 39.4755C141.109 38.9226 141.066 38.2262 140.862 37.4595C142.886 36.7928 143.841 38.0399 144.413 39.2853C146.566 44.006 148.595 48.7816 150.595 53.5682C151.779 56.3965 152.791 59.2974 153.943 62.1428C154.275 62.9672 154.823 63.7065 155.612 65.075C156.342 63.7416 157.02 62.9755 157.198 62.1065C159.064 53.018 161.485 43.895 160.641 34.591C160.149 29.1872 157.893 23.9389 156.409 18.628C155.928 16.9098 155.294 15.2275 154.894 13.4945C154.771 12.9526 155.191 12.2909 155.363 11.6846C155.954 11.9254 156.779 12.0001 157.092 12.4382C158.515 14.4465 159.801 16.5543 161.126 18.6335C165.951 26.2209 167.592 34.6372 166.626 43.3745C165.452 54.0266 163.446 64.5809 162.134 75.2182C161.196 82.8392 160.328 90.4255 157.434 97.6261C157.198 98.2186 157.269 99.342 157.658 99.6624C158.066 100.002 159.153 99.913 159.733 99.6102C164.508 97.1342 167.991 93.311 170.529 88.6651C170.917 87.9495 170.524 86.5881 170.104 85.7093C169.261 83.9538 168.066 82.3698 167.199 80.6237C166.847 79.9169 166.973 78.9704 166.882 78.135C167.101 78.0317 167.33 77.9311 167.551 77.8289C169.261 79.4711 170.967 81.1156 172.864 82.9359C173.366 82.1318 173.781 81.691 173.948 81.1689C176.71 72.4904 179.61 63.8631 180.584 54.7125C181.294 48.0281 180.051 42.0213 175.723 36.7571C175.394 36.3548 175.26 35.7969 175.034 35.3127L175.492 34.7273C176.385 35.172 177.381 35.4825 178.15 36.0789C185.467 41.7839 187.97 49.6604 186.765 58.3581C185.505 67.506 184.401 76.7802 180.878 85.4993C180.488 86.4661 180.615 87.8753 181.011 88.8839C182.981 93.9255 182.171 97.9762 177.551 100.916C172.91 103.868 167.948 106.379 162.953 108.725C155.548 112.204 147.841 115.078 140.533 118.739C132.891 122.567 127.435 128.727 123.964 136.58C122.353 140.215 120.638 143.805 118.955 147.409C118.223 148.977 116.02 149.482 114.907 148.212C113.395 146.488 111.922 144.699 110.682 142.778C109.593 141.09 109.661 139.526 111.228 137.743C114.739 133.746 115.072 128.563 115.514 123.574C115.743 120.967 115.356 118.306 115.26 115.668C115.235 115.034 115.255 114.398 115.255 113.763C115.621 113.64 115.987 113.522 116.349 113.403Z" fill="#616061"/>
<path d="M191.877 79.0404C190.214 81.7808 187.725 83.3274 184.661 84.0556C184.657 84.0221 184.653 84.0029 184.661 83.9985C185.269 83.539 185.396 82.8652 185.491 82.1727C185.554 81.6829 185.61 81.1877 185.727 80.7101C186.01 79.6048 186.711 78.7821 187.626 78.1247C188.402 77.5652 189.279 77.1942 190.144 76.804C191.358 76.2538 192.455 75.5338 193.288 74.472C193.375 74.3686 193.442 74.2466 193.525 74.1395C193.67 73.9564 193.803 73.9707 193.887 74.1922C194.028 74.5616 194.164 74.932 194.279 75.3096C194.769 76.8733 195.061 78.4693 194.989 80.1138C194.938 81.373 194.647 82.5651 194.019 83.6715C193.461 84.6498 192.597 85.2318 191.562 85.5968C190.279 86.0442 188.959 86.1052 187.621 85.8936C186.877 85.7765 186.164 85.5616 185.463 85.2884C185.066 85.1323 184.657 85.0219 184.222 85.0345C183.546 85.0538 183.02 85.4357 182.805 86.0678C182.735 86.2651 182.703 86.474 182.639 86.6713C182.611 86.7504 182.551 86.8461 182.48 86.873C182.436 86.8889 182.325 86.807 182.286 86.7438C182.129 86.4883 182.106 86.2063 182.246 85.9425C182.735 85.0323 183.482 84.5717 184.537 84.458C186.721 84.2233 188.725 83.5159 190.274 81.861C190.952 81.1355 191.457 80.2974 191.826 79.3779C191.866 79.2811 191.899 79.1844 191.937 79.086C191.915 79.0706 191.898 79.0563 191.877 79.0404Z" fill="#00652E"/>
<path d="M135.588 51.6487C137.468 55.7289 140.659 58.2882 144.762 59.8089C144.768 59.7609 144.78 59.7342 144.771 59.7274C144.004 58.991 143.927 58.0304 143.9 57.0559C143.881 56.362 143.885 55.6688 143.785 54.988C143.562 53.4027 142.72 52.1474 141.568 51.0835C140.577 50.176 139.431 49.5129 138.3 48.8231C136.709 47.8617 135.318 46.6805 134.321 45.0716C134.222 44.908 134.15 44.7293 134.05 44.5688C133.875 44.2889 133.69 44.2873 133.541 44.5762C133.296 45.069 133.056 45.5651 132.84 46.0641C131.938 48.1567 131.302 50.3225 131.157 52.6227C131.048 54.3771 131.264 56.0847 131.963 57.721C132.584 59.1671 133.689 60.1257 135.054 60.7966C136.751 61.6355 138.552 61.9417 140.426 61.871C141.462 61.8279 142.475 61.6475 143.473 61.3859C144.044 61.2409 144.623 61.1537 145.221 61.2397C146.144 61.3813 146.815 61.9975 147.013 62.9119C147.075 63.1961 147.091 63.4934 147.152 63.7768C147.176 63.8897 147.249 64.0329 147.34 64.082C147.395 64.1138 147.562 64.0159 147.625 63.9353C147.882 63.6066 147.949 63.2208 147.795 62.8303C147.262 61.4838 146.304 60.723 144.873 60.3886C141.902 59.7021 139.256 58.3866 137.374 55.8307C136.553 54.7067 135.979 53.4625 135.61 52.1243C135.568 51.9836 135.534 51.8433 135.497 51.7028C135.53 51.6852 135.56 51.665 135.588 51.6487Z" fill="#00652E"/>
<path d="M172.744 6.68917C171.737 10.5691 169.29 13.3209 165.843 15.3077C165.832 15.263 165.816 15.2418 165.82 15.2338C166.391 14.4642 166.296 13.6122 166.154 12.7508C166.054 12.1385 165.936 11.5261 165.909 10.9118C165.84 9.48324 166.386 8.25142 167.249 7.13256C167.986 6.17987 168.912 5.41969 169.816 4.63597C171.087 3.54159 172.145 2.28247 172.771 0.709864C172.833 0.551709 172.867 0.38414 172.93 0.226455C173.038 -0.0474923 173.209 -0.0762054 173.391 0.158674C173.698 0.548884 173.996 0.943331 174.279 1.35096C175.451 3.04595 176.388 4.85155 176.911 6.84826C177.311 8.37521 177.403 9.90734 177.049 11.4578C176.736 12.8294 175.896 13.8405 174.778 14.6487C173.389 15.6508 171.813 16.2039 170.113 16.4331C169.167 16.5616 168.221 16.5607 167.272 16.4882C166.734 16.4472 166.196 16.4609 165.675 16.6322C164.865 16.9015 164.365 17.5482 164.336 18.3856C164.328 18.6464 164.368 18.9052 164.361 19.1651C164.358 19.2696 164.317 19.4042 164.242 19.4668C164.197 19.5016 164.032 19.4428 163.959 19.3802C163.676 19.1321 163.542 18.8026 163.616 18.4364C163.873 17.1684 164.607 16.3489 165.843 15.8297C168.406 14.7584 170.569 13.1862 171.839 10.6468C172.395 9.53219 172.698 8.34509 172.808 7.11044C172.819 6.98194 172.825 6.8525 172.834 6.72306C172.802 6.7127 172.773 6.69905 172.744 6.68917Z" fill="#00652E"/>
<path d="M20.3536 35.3C20.0777 35.843 19.8873 36.4569 19.5121 36.9192C15.4528 41.8938 14.0513 47.6043 14.6544 53.9001C15.5814 63.5619 18.6459 72.6938 21.6613 81.8344C21.7347 82.0576 21.9631 82.2269 22.4994 82.8936C23.8275 81.5827 25.0607 80.2856 26.3893 79.0962C26.8815 78.6533 27.5977 78.4625 28.214 78.157C28.2576 78.8687 28.5727 79.708 28.2996 80.2642C27.4118 82.0917 26.4142 83.8895 25.2505 85.551C24.3572 86.8277 24.1503 87.8231 25.0392 89.2323C27.7235 93.4803 30.889 97.2144 35.4648 99.5239C36.0795 99.8333 37.0748 100.05 37.5587 99.7597C37.9731 99.5123 38.2203 98.3323 37.9946 97.7948C34.7591 90.1419 34.1549 81.9642 32.9951 73.8848C31.8601 65.9758 30.372 58.1168 29.2409 50.2056C27.494 37.9744 28.5782 26.2132 35.8808 15.6891C36.9755 14.1062 38.2959 12.6805 39.5131 11.1784C39.8624 11.3455 40.2122 11.5071 40.562 11.6703C40.4108 12.8492 40.439 14.0809 40.0803 15.1917C38.8101 19.1616 37.4142 23.0941 36.0486 27.0349C34.0059 32.9191 34.0793 38.9044 35.1106 44.9546C36.0099 50.2331 36.778 55.5402 37.7486 60.8099C37.9897 62.118 38.7886 63.3272 39.6422 65.3053C40.5912 63.6025 41.2263 62.7193 41.612 61.7393C43.8836 55.9519 46.0427 50.1243 48.3535 44.3533C49.1072 42.467 50.0805 40.6384 51.1896 38.9357C51.7364 38.091 52.8173 37.5925 53.6593 36.9373C53.9136 37.1313 54.1663 37.3242 54.4207 37.5204C54.1073 38.5032 53.8237 39.4991 53.4777 40.4735C52.2903 43.8317 50.8243 47.1228 49.9227 50.5563C47.6577 59.1919 45.321 67.8329 43.6199 76.59C42.0998 84.4314 42.6063 92.3036 47.2306 99.2304C48.7497 101.506 50.8397 103.626 53.1257 105.133C60.8769 110.243 68.8897 114.974 75.145 122.658C76.5283 119.397 77.7869 116.433 79.0444 113.472C79.35 113.575 79.6535 113.675 79.9586 113.779C79.9586 115.508 79.8273 117.247 79.9851 118.963C80.4111 123.601 80.7394 128.264 81.5737 132.834C81.9124 134.708 83.5606 136.316 84.4114 138.137C84.8997 139.187 85.5844 140.76 85.1524 141.523C83.7426 144.004 81.9946 146.341 80.1048 148.495C79.0802 149.666 76.9537 148.646 76.2094 147.012C67.6372 128.153 66.239 123.064 43.4472 113.043C39.1572 111.157 34.5522 109.952 30.3405 107.921C25.7587 105.712 21.2943 103.156 17.1004 100.287C13.1453 97.581 12.5064 93.6726 14.2014 89.1768C14.6616 87.9555 14.7543 86.2797 14.3013 85.0821C10.9449 76.2289 9.65043 66.9096 8.54138 57.6518C7.53165 49.2509 10.0422 41.5942 17.1605 36.1195C17.9506 35.5116 18.956 35.1824 19.8664 34.7218C20.0258 34.9153 20.1892 35.1071 20.3536 35.3Z" fill="#616061"/>
<path d="M58.3008 52.829C57.1398 57.36 54.3198 60.5709 50.3454 62.8908C50.3288 62.8419 50.3117 62.8161 50.3173 62.8045C50.9772 61.9065 50.8652 60.9111 50.704 59.9037C50.5876 59.1919 50.4497 58.478 50.4166 57.7618C50.3415 56.091 50.9694 54.6532 51.9659 53.3456C52.814 52.2332 53.8822 51.3472 54.9251 50.4316C56.3905 49.152 57.6105 47.6835 58.3317 45.8472C58.4028 45.6631 58.4437 45.4663 58.5171 45.2827C58.6423 44.9629 58.8365 44.9315 59.0473 45.2036C59.4015 45.6592 59.7469 46.1215 60.0719 46.5947C61.4249 48.5766 62.5074 50.6833 63.1094 53.0159C63.569 54.7983 63.6761 56.5873 63.2678 58.3955C62.9075 59.9971 61.943 61.1788 60.6474 62.1225C59.0456 63.2948 57.2298 63.9379 55.2683 64.2066C54.1774 64.355 53.0877 64.355 51.9941 64.2715C51.3722 64.2248 50.7515 64.2401 50.1523 64.4424C49.2154 64.7557 48.6393 65.5109 48.6068 66.4859C48.5985 66.7898 48.641 67.0927 48.6333 67.3977C48.6305 67.5208 48.5853 67.6763 48.5003 67.7472C48.4451 67.7879 48.2542 67.7192 48.172 67.6489C47.8431 67.3581 47.692 66.9734 47.7747 66.5447C48.0721 65.0662 48.9174 64.1071 50.3454 63.502C53.3001 62.2511 55.7952 60.4159 57.2579 57.4502C57.9007 56.147 58.2494 54.7631 58.3747 53.3203C58.3879 53.1692 58.3935 53.0203 58.4045 52.8691C58.3708 52.8565 58.3361 52.8416 58.3008 52.829Z" fill="#00652E"/>
<path d="M20.8454 8.29788C22.0047 12.8284 24.8253 16.0409 28.8036 18.3592C28.8168 18.3081 28.8361 18.2844 28.83 18.2745C28.1696 17.3765 28.2821 16.3816 28.4455 15.3753C28.5597 14.6602 28.696 13.9457 28.7302 13.2296C28.808 11.561 28.179 10.1221 27.1803 8.81561C26.3317 7.70319 25.2656 6.81666 24.2223 5.901C22.7579 4.62204 21.5346 3.15181 20.814 1.31774C20.745 1.13142 20.702 0.936854 20.6275 0.751083C20.5028 0.431755 20.3108 0.397679 20.1011 0.671938C19.7458 1.12812 19.3998 1.59035 19.0754 2.06412C17.7225 4.04384 16.6415 6.15217 16.0385 8.4842C15.5788 10.2666 15.4735 12.0573 15.8807 13.8633C16.2404 15.466 17.2071 16.6488 18.4977 17.5936C20.1028 18.7631 21.9186 19.4056 23.8791 19.6755C24.971 19.8255 26.0596 19.8239 27.1565 19.7398C27.7773 19.6942 28.3964 19.7079 28.9983 19.9085C29.9292 20.224 30.5069 20.9797 30.5422 21.9542C30.5505 22.2576 30.5063 22.5615 30.5146 22.8671C30.5162 22.9853 30.5637 23.1463 30.6498 23.2156C30.7022 23.2574 30.8937 23.192 30.9759 23.1172C31.302 22.827 31.457 22.4417 31.3704 22.0141C31.0757 20.5373 30.2293 19.5771 28.8036 18.9703C25.8489 17.7194 23.3505 15.8842 21.8888 12.9207C21.2488 11.6159 20.8968 10.2314 20.7743 8.78868C20.7605 8.63919 20.7539 8.48969 20.7428 8.3369C20.7798 8.32481 20.8096 8.31162 20.8454 8.29788Z" fill="#00652E"/>
<path d="M5.29481 80.2306C8.21074 81.4789 10.065 83.6931 11.2017 86.5823C11.1651 86.589 11.1456 86.5965 11.1412 86.5917C10.6079 86.0603 9.92907 86.0273 9.2379 86.0303C8.74817 86.0314 8.25453 86.047 7.76802 85.9943C6.64378 85.8697 5.74432 85.2981 4.97388 84.4995C4.31701 83.817 3.83421 83.0124 3.33185 82.2228C2.628 81.1136 1.77333 80.1465 0.619141 79.4747C0.503166 79.4072 0.375029 79.3597 0.259448 79.2904C0.0589901 79.1741 0.055268 79.0425 0.260576 78.9297C0.603237 78.7429 0.95033 78.56 1.30431 78.3946C2.77351 77.7057 4.30169 77.2081 5.92817 77.0534C7.17191 76.9359 8.38016 77.0529 9.5509 77.5161C10.5839 77.925 11.2745 78.69 11.7734 79.6501C12.3876 80.8385 12.6274 82.1152 12.6014 83.4476C12.5878 84.1894 12.4717 84.9122 12.2986 85.6343C12.2019 86.0397 12.1461 86.4541 12.2203 86.8751C12.3322 87.5303 12.7764 87.9953 13.4273 88.1182C13.6283 88.1565 13.8383 88.1589 14.0407 88.1965C14.1211 88.21 14.2224 88.2598 14.2597 88.3238C14.282 88.3627 14.2169 88.4834 14.1615 88.5307C13.9304 88.7176 13.6563 88.7773 13.3807 88.6768C12.4198 88.3252 11.8657 87.6591 11.6101 86.6486C11.0824 84.5506 10.1173 82.6965 8.28125 81.4113C7.47717 80.849 6.58635 80.4689 5.63195 80.2344C5.53302 80.2095 5.43255 80.1887 5.33285 80.166C5.31992 80.1874 5.30701 80.2077 5.29481 80.2306Z" fill="#00652E"/>
<path d="M224.684 25.2011C224.143 25.7426 223.883 26.3925 223.883 27.1723V44.0249C223.883 45.6062 223.298 46.9709 222.128 48.0973C220.98 49.2237 219.615 49.7869 218.034 49.7869C216.366 49.7869 214.958 49.1804 213.81 47.9673C213.269 47.4041 212.619 47.1225 211.861 47.1009C211.102 47.0792 210.431 47.3175 209.868 47.859C209.326 48.3789 209.023 49.0287 209.001 49.8085C208.98 50.5667 209.24 51.2382 209.759 51.8014C212.012 54.1625 214.763 55.3539 218.034 55.3539C221.153 55.3539 223.818 54.2492 226.049 52.0397C228.28 49.8519 229.406 47.1875 229.45 44.0682V27.1723C229.45 26.3925 229.168 25.7426 228.627 25.2011C228.085 24.6595 227.414 24.3779 226.655 24.3779C225.897 24.3779 225.226 24.6595 224.684 25.2011Z" fill="#616061"/>
<path d="M247.978 44.1766L252.592 33.9307L257.206 44.1766H247.978ZM245.465 49.7436H259.653L259.718 49.7219L261.386 53.4693C261.711 54.1625 262.231 54.6391 262.946 54.9207C263.661 55.2023 264.376 55.1806 265.069 54.8557C265.784 54.5308 266.26 54.0325 266.542 53.3177C266.823 52.6029 266.802 51.8881 266.477 51.1732L255.126 26.0025C254.671 24.9195 253.827 24.3779 252.592 24.3779C251.357 24.3779 250.512 24.9195 250.057 26.0025L238.707 51.1732C238.382 51.8881 238.36 52.6029 238.642 53.3177C238.923 54.0325 239.4 54.5308 240.093 54.8557C240.808 55.1806 241.523 55.2023 242.238 54.9207C242.952 54.6391 243.451 54.1625 243.776 53.4693L245.465 49.7436Z" fill="#616061"/>
<path d="M297.107 25.2227C296.566 25.7642 296.306 26.4141 296.306 27.1939V42.2486C296.284 44.3281 295.526 46.1044 294.031 47.599C292.537 49.072 290.739 49.8085 288.637 49.8085C286.536 49.8085 284.76 49.072 283.265 47.5774C281.771 46.0827 281.013 44.3065 280.991 42.2053V27.1939C280.991 26.4141 280.731 25.7642 280.189 25.2227C279.648 24.6811 278.976 24.3995 278.218 24.3995C277.438 24.3995 276.789 24.6811 276.247 25.2227C275.706 25.7642 275.424 26.4141 275.424 27.1939V42.2919C275.446 45.9094 276.767 48.9854 279.345 51.5414C281.922 54.0975 285.02 55.3755 288.637 55.3755C292.255 55.3755 295.353 54.0975 297.93 51.5414C300.508 48.9854 301.829 45.9094 301.873 42.2919V27.1939C301.873 26.4141 301.591 25.7642 301.05 25.2227C300.508 24.6811 299.836 24.3995 299.078 24.3995C298.32 24.3995 297.649 24.6811 297.107 25.2227Z" fill="#616061"/>
<path d="M320.34 36.9849H320.318C318.954 36.8766 317.849 36.465 317.048 35.7069C316.224 34.9487 315.856 34.039 315.943 32.9559C316.008 31.8728 316.506 31.0063 317.416 30.3782C318.326 29.75 319.474 29.49 320.838 29.5983C321.986 29.6633 323.048 30.1832 324.044 31.1146C324.607 31.6345 325.279 31.8728 326.059 31.8511C326.817 31.8295 327.467 31.5479 327.987 30.9847C328.528 30.4215 328.766 29.75 328.745 28.9918C328.723 28.212 328.42 27.5622 327.857 27.0423C326.969 26.1975 326.08 25.5693 325.214 25.1144C324.023 24.4862 322.701 24.1396 321.228 24.0313C318.326 23.8364 315.834 24.5512 313.777 26.1758C311.697 27.8004 310.571 29.9233 310.376 32.566C310.181 35.187 311.004 37.4615 312.824 39.3677C314.643 41.2739 317.004 42.3353 319.929 42.5303C321.142 42.6169 322.203 42.9635 323.113 43.57C323.524 43.8516 323.828 44.1765 324.023 44.5448C324.282 45.043 324.391 45.7145 324.326 46.5593C324.261 47.6424 323.763 48.4872 322.853 49.1154C321.943 49.7435 320.795 50.0251 319.43 49.9168C318.131 49.8302 317.091 49.3753 316.289 48.5738C315.748 48.0323 315.098 47.7507 314.318 47.7507C313.56 47.7507 312.889 48.0106 312.347 48.5522C311.805 49.0937 311.546 49.7652 311.524 50.5234C311.524 51.2815 311.805 51.953 312.347 52.4946C314.123 54.2925 316.354 55.2672 319.04 55.4622C321.943 55.6788 324.434 54.964 326.492 53.3394C328.571 51.7147 329.698 49.5703 329.893 46.9492C330.131 43.3967 328.896 40.7107 326.167 38.9128C324.456 37.7647 322.506 37.1365 320.34 36.9849Z" fill="#616061"/>
<path d="M214.556 82.7553V71.9454H218.902C220.372 71.9671 221.626 72.4859 222.664 73.5453C223.723 74.6047 224.242 75.8802 224.242 77.3504C224.242 78.8205 223.723 80.0961 222.664 81.1555C221.626 82.2148 220.372 82.7337 218.902 82.7553H214.556ZM212.2 66.3892L212.07 66.4108L211.919 66.3892H211.789C211.011 66.3892 210.362 66.6702 209.822 67.2107C209.281 67.7512 209 68.3998 209 69.1781V94.2787C209 95.057 209.281 95.7056 209.822 96.2461C210.362 96.7866 211.011 97.0676 211.789 97.0676C212.546 97.0676 213.194 96.7866 213.735 96.2461C214.275 95.7056 214.556 95.057 214.556 94.2787V88.3116H218.988C221.95 88.29 224.501 87.1874 226.62 85.047C228.739 82.9067 229.798 80.3339 229.798 77.3504C229.798 74.3452 228.739 71.7725 226.598 69.6321C224.48 67.4918 221.929 66.4108 218.923 66.3892H212.2Z" fill="#00652E"/>
<path d="M243.317 81.2419V71.9454H249.306C250.56 71.9671 251.641 72.4211 252.549 73.3291C253.435 74.2371 253.889 75.3181 253.889 76.5937C253.889 77.8693 253.435 78.9502 252.549 79.8583C251.641 80.7663 250.56 81.2203 249.284 81.2419H243.317ZM256.484 69.4159C254.495 67.4053 252.116 66.4108 249.327 66.3892H240.961L240.831 66.4108L240.68 66.3892H240.55C239.772 66.3892 239.123 66.6486 238.582 67.1891C238.042 67.7296 237.761 68.3998 237.761 69.1565V94.2787C237.761 95.057 238.042 95.7056 238.582 96.2461C239.123 96.7866 239.772 97.0676 240.55 97.0676C241.307 97.0676 241.955 96.7866 242.496 96.2461C243.036 95.7056 243.317 95.057 243.317 94.2787V86.7982H246.971L253.889 95.965C254.365 96.5704 254.97 96.9379 255.727 97.046C256.484 97.1541 257.175 96.9595 257.802 96.5055C258.408 96.0515 258.754 95.4245 258.862 94.6678C258.97 93.9111 258.797 93.2193 258.321 92.6139L253.305 85.9551C255.143 85.1551 256.613 83.9228 257.738 82.2581C258.883 80.5501 259.445 78.6476 259.445 76.5937C259.445 73.8047 258.451 71.4049 256.484 69.4159Z" fill="#00652E"/>
<path d="M275.746 88.9602C273.757 86.9496 272.763 84.5498 272.763 81.7392C272.763 78.9286 273.757 76.5288 275.746 74.5398C277.757 72.5508 280.157 71.5563 282.967 71.5563C285.778 71.5563 288.178 72.5508 290.167 74.5398C292.156 76.5288 293.15 78.9286 293.15 81.7392C293.15 84.5498 292.156 86.9496 290.167 88.9602C288.178 90.9492 285.778 91.9437 282.967 91.9437C280.157 91.9437 277.757 90.9492 275.746 88.9602ZM271.833 70.605C268.742 73.6966 267.207 77.3936 267.207 81.7392C267.207 86.0848 268.742 89.8034 271.833 92.8734C274.903 95.965 278.622 97.5 282.967 97.5C287.313 97.5 291.01 95.965 294.102 92.8734C297.172 89.8034 298.707 86.0848 298.707 81.7392C298.707 77.3936 297.172 73.6966 294.102 70.605C291.01 67.535 287.313 66 282.967 66C278.622 66 274.903 67.535 271.833 70.605Z" fill="#00652E"/>
<path d="M311.795 82.7553V71.9454H316.141C317.611 71.9671 318.865 72.4859 319.903 73.5453C320.962 74.6047 321.481 75.8802 321.481 77.3504C321.481 78.8205 320.962 80.0961 319.903 81.1555C318.865 82.2148 317.611 82.7337 316.141 82.7553H311.795ZM309.439 66.3892L309.309 66.4108L309.158 66.3892H309.028C308.25 66.3892 307.601 66.6702 307.061 67.2107C306.52 67.7512 306.239 68.3998 306.239 69.1781V94.2787C306.239 95.057 306.52 95.7056 307.061 96.2461C307.601 96.7866 308.25 97.0676 309.028 97.0676C309.785 97.0676 310.433 96.7866 310.974 96.2461C311.514 95.7056 311.795 95.057 311.795 94.2787V88.3116H316.227C319.189 88.29 321.741 87.1874 323.859 85.047C325.978 82.9067 327.037 80.3339 327.037 77.3504C327.037 74.3452 325.978 71.7725 323.838 69.6321C321.719 67.4918 319.168 66.4108 316.163 66.3892H309.439Z" fill="#00652E"/>
<path d="M352.339 71.9454C353.117 71.9454 353.766 71.6644 354.306 71.1239C354.847 70.5834 355.128 69.9348 355.128 69.1781C355.128 68.3998 354.847 67.7512 354.306 67.2107C353.766 66.6702 353.117 66.3892 352.339 66.3892H337.789C337.011 66.3892 336.362 66.6702 335.822 67.2107C335.281 67.7512 335 68.3998 335 69.1781V94.2787C335 95.057 335.281 95.7056 335.822 96.2461C336.362 96.7866 337.011 97.0676 337.789 97.0676H352.339C353.117 97.0676 353.766 96.7866 354.306 96.2461C354.847 95.7056 355.128 95.057 355.128 94.2787C355.128 93.522 354.847 92.8518 354.306 92.3113C353.766 91.7708 353.117 91.5113 352.339 91.5113H340.556V84.4417H349.507C350.285 84.4417 350.934 84.1606 351.474 83.6201C352.015 83.0796 352.296 82.431 352.296 81.6527C352.296 80.896 352.015 80.2474 351.474 79.7069C350.934 79.1664 350.285 78.8854 349.507 78.8854H340.556V71.9454H352.339Z" fill="#00652E"/>
<path d="M368.632 81.2419V71.9454H374.621C375.875 71.9671 376.956 72.4211 377.864 73.3291C378.75 74.2371 379.204 75.3181 379.204 76.5937C379.204 77.8693 378.75 78.9502 377.864 79.8583C376.956 80.7663 375.875 81.2203 374.599 81.2419H368.632ZM381.799 69.4159C379.81 67.4053 377.432 66.4108 374.643 66.3892H366.276L366.146 66.4108L365.995 66.3892H365.865C365.087 66.3892 364.438 66.6486 363.898 67.1891C363.357 67.7296 363.076 68.3998 363.076 69.1565V94.2787C363.076 95.057 363.357 95.7056 363.898 96.2461C364.438 96.7866 365.087 97.0676 365.865 97.0676C366.622 97.0676 367.27 96.7866 367.811 96.2461C368.351 95.7056 368.632 95.057 368.632 94.2787V86.7982H372.286L379.204 95.965C379.68 96.5704 380.285 96.9379 381.042 97.046C381.799 97.1541 382.491 96.9595 383.118 96.5055C383.723 96.0515 384.069 95.4245 384.177 94.6678C384.285 93.9111 384.112 93.2193 383.636 92.6139L378.621 85.9551C380.458 85.1551 381.928 83.9228 383.053 82.2581C384.199 80.5501 384.761 78.6476 384.761 76.5937C384.761 73.8047 383.766 71.4049 381.799 69.4159Z" fill="#00652E"/>
<path d="M395.311 66.3892C394.532 66.3892 393.884 66.6702 393.343 67.2107C392.803 67.7512 392.522 68.3998 392.522 69.1781C392.522 69.9348 392.803 70.5834 393.343 71.1239C393.884 71.6644 394.532 71.9454 395.311 71.9454H401.343V94.2787C401.343 95.057 401.624 95.7056 402.164 96.2461C402.705 96.7866 403.375 97.0676 404.132 97.0676C404.888 97.0676 405.558 96.7866 406.099 96.2461C406.639 95.7056 406.899 95.057 406.899 94.2787V71.9454H412.952C413.709 71.9454 414.379 71.6644 414.92 71.1239C415.46 70.5834 415.741 69.9348 415.741 69.1781C415.741 68.3998 415.46 67.7512 414.92 67.2107C414.379 66.6702 413.709 66.3892 412.952 66.3892H395.311Z" fill="#00652E"/>
<path d="M445.468 66.4541C444.712 66.627 444.149 67.0378 443.739 67.6864L436.107 79.9016L428.475 67.6864C428.064 67.0378 427.502 66.627 426.746 66.4541C425.989 66.2811 425.297 66.3892 424.648 66.8C424 67.2108 423.589 67.7945 423.416 68.5512C423.243 69.2863 423.351 69.9781 423.762 70.6483L433.318 85.9551V94.2787C433.318 95.057 433.599 95.7056 434.14 96.2461C434.68 96.7866 435.35 97.0677 436.107 97.0677C436.864 97.0677 437.534 96.7866 438.074 96.2461C438.615 95.7056 438.874 95.057 438.874 94.2787V85.9551L448.452 70.6483C448.863 69.9781 448.971 69.2863 448.798 68.5512C448.625 67.7945 448.214 67.2108 447.565 66.8C446.917 66.3892 446.225 66.2811 445.468 66.4541Z" fill="#00652E"/>
<path d="M214.567 123.5C218.344 123.5 220.068 121.623 220.068 119.461C220.068 113.916 210.528 116.623 210.528 112.039C210.528 110.358 211.86 108.982 214.829 108.982C216.204 108.982 217.754 109.397 219.02 110.27L219.435 109.375C218.256 108.524 216.51 108 214.829 108C211.074 108 209.415 109.899 209.415 112.061C209.415 117.693 218.955 114.942 218.955 119.527C218.955 121.186 217.601 122.518 214.545 122.518C212.493 122.518 210.55 121.688 209.502 120.596L209 121.426C210.113 122.649 212.296 123.5 214.567 123.5Z" fill="#616061"/>
<path d="M243.741 122.387V116.121H251.884V115.139H243.741V109.113H252.845V108.109H242.628V123.391H253.172V122.387H243.741Z" fill="#616061"/>
<path d="M287.882 123.391L284.062 118.042C286.332 117.365 287.642 115.685 287.642 113.261C287.642 110.03 285.328 108.109 281.486 108.109H276.006V123.391H277.12V118.392H281.486C282.01 118.392 282.49 118.348 282.97 118.282L286.616 123.391H287.882ZM277.12 117.409V109.113H281.486C284.761 109.113 286.507 110.62 286.507 113.261C286.507 115.881 284.761 117.409 281.486 117.409H277.12Z" fill="#616061"/>
<path d="M321.54 108.109L315.362 121.95L309.183 108.109H307.961L314.772 123.391H315.886L322.697 108.109H321.54Z" fill="#616061"/>
<path d="M343.936 123.391H345.049V108.109H343.936V123.391Z" fill="#616061"/>
<path d="M375.611 123.5C377.772 123.5 379.715 122.78 381.047 121.361L380.348 120.64C379.038 121.928 377.444 122.474 375.654 122.474C371.747 122.474 368.799 119.592 368.799 115.75C368.799 111.908 371.747 109.026 375.654 109.026C377.444 109.026 379.038 109.55 380.348 110.838L381.047 110.118C379.715 108.699 377.772 108 375.611 108C371.07 108 367.686 111.296 367.686 115.75C367.686 120.204 371.07 123.5 375.611 123.5Z" fill="#616061"/>
<path d="M404.664 122.387V116.121H412.807V115.139H404.664V109.113H413.767V108.109H403.55V123.391H414.095V122.387H404.664Z" fill="#616061"/>
<path d="M440.946 123.5C444.722 123.5 446.447 121.623 446.447 119.461C446.447 113.916 436.907 116.623 436.907 112.039C436.907 110.358 438.239 108.982 441.208 108.982C442.583 108.982 444.133 109.397 445.399 110.27L445.814 109.375C444.635 108.524 442.889 108 441.208 108C437.453 108 435.794 109.899 435.794 112.061C435.794 117.693 445.334 114.942 445.334 119.527C445.334 121.186 443.98 122.518 440.924 122.518C438.872 122.518 436.929 121.688 435.881 120.596L435.379 121.426C436.492 122.649 438.675 123.5 440.946 123.5Z" fill="#616061"/>
</svg>
