<svg width="689" height="689" viewBox="0 0 689 689" fill="none" xmlns="http://www.w3.org/2000/svg">
<mask id="mask0_126_148" style="mask-type:alpha" maskUnits="userSpaceOnUse" x="0" y="0" width="689" height="689">
<circle cx="344.5" cy="344.5" r="344.5" fill="#616061"/>
</mask>
<g mask="url(#mask0_126_148)">
<circle cx="344.5" cy="344.5" r="344.5" fill="#616061"/>
<rect x="270.307" y="489.091" width="236" height="39" rx="19.5" transform="rotate(41.9696 270.307 489.091)" fill="#409458"/>
<rect x="26.0807" y="344" width="332.784" height="54.9939" rx="27.497" transform="rotate(41.9696 26.0807 344)" fill="#409458"/>
<rect x="478.776" y="72" width="332.784" height="54.9939" rx="27.497" transform="rotate(41.9696 478.776 72)" fill="#409458"/>
<rect x="602.107" y="387" width="209.088" height="34.5527" rx="17.2764" transform="rotate(41.9696 602.107 387)" fill="#409458"/>
<rect x="279.107" y="8" width="145.534" height="24.0501" rx="12.0251" transform="rotate(41.9696 279.107 8)" fill="#409458"/>
<rect opacity="0.2" x="338.081" y="138" width="236" height="39" rx="19.5" transform="rotate(41.9696 338.081 138)" fill="#409458"/>
<rect x="333.695" y="487" width="62.2478" height="17.4885" rx="8.74424" transform="rotate(41.9696 333.695 487)" fill="#409458"/>
<path d="M451.27 391.859C454.18 388.623 459.163 388.359 462.399 391.27L521.592 444.51C524.828 447.421 525.091 452.403 522.181 455.639V455.639C519.27 458.875 514.288 459.139 511.052 456.229L451.859 402.988C448.623 400.078 448.359 395.095 451.27 391.859V391.859Z" fill="#409458"/>
<path opacity="0.4" d="M402.591 535.56C408.895 528.552 419.686 527.981 426.694 534.284L554.891 649.59C561.899 655.893 562.471 666.685 556.167 673.693V673.693C549.864 680.701 539.072 681.273 532.064 674.969L403.867 559.663C396.859 553.36 396.288 542.568 402.591 535.56V535.56Z" fill="#409458"/>
<path opacity="0.7" d="M220.41 279.619C231.857 266.893 251.454 265.855 264.181 277.302L496.986 486.697C509.713 498.144 510.75 517.741 499.303 530.468V530.468C487.856 543.195 468.259 544.232 455.532 532.785L222.727 323.39C210 311.943 208.963 292.346 220.41 279.619V279.619Z" fill="#409458"/>
<path d="M48.0258 97.6247C80.6247 61.3811 136.433 58.4266 172.676 91.0256L489.663 376.137C525.906 408.736 528.861 464.543 496.262 500.787V500.787C463.663 537.031 407.855 539.985 371.611 507.386L54.6248 222.275C18.3812 189.676 15.4268 133.868 48.0258 97.6247V97.6247Z" fill="url(#paint0_linear_126_148)"/>
</g>
<defs>
<linearGradient id="paint0_linear_126_148" x1="63.2872" y1="95.1623" x2="395.287" y2="379.662" gradientUnits="userSpaceOnUse">
<stop stop-color="#409458"/>
<stop offset="1" stop-color="#409458" stop-opacity="0"/>
</linearGradient>
</defs>
</svg>
