<svg width="50" height="49" viewBox="0 0 50 49" fill="none" xmlns="http://www.w3.org/2000/svg">
<rect x="14.9421" width="1.47096" height="38.245" fill="black"/>
<path fill-rule="evenodd" clip-rule="evenodd" d="M17.884 2.08386V14.4644C19.8453 14.4236 24.5524 13.6309 27.6904 10.787C30.6324 9.31608 34.8001 7.84512 35.9033 8.09028C34.3506 7.06878 30.2891 5.0503 26.4646 5.14836C26.2547 5.09588 25.9774 5.03342 25.6494 4.95954C23.6791 4.51575 19.8807 3.66016 17.884 2.08386ZM17.884 28.9289V35.303C18.9873 35.5073 21.1692 36.1856 21.0711 37.2643C20.9485 38.6127 19.1098 39.7159 16.7808 39.4708C14.4518 39.2256 13.3486 39.103 12.8583 37.5095C12.9563 36.5288 14.2884 35.7934 14.9421 35.5482V29.0515C11.0196 29.3783 2.6351 31.2579 0.477692 36.1611C-1.67972 41.0643 3.99165 44.66 7.09701 45.8449C9.67119 46.9073 16.6337 48.7623 23.8905 47.6836C27.5188 47.2914 29.3248 46.703 29.7743 46.4578C30.9592 46.0901 33.9911 45.4281 36.6388 45.7223C39.2865 46.0165 43.5441 44.6191 45.342 43.8836C46.8946 43.3116 50 41.383 50 38.245C50 35.1069 45.5054 32.8514 43.2581 32.116C41.5828 31.6665 37.6685 30.7921 35.413 30.8902C33.1575 30.9882 30.7958 30.5224 29.8969 30.2773C28.3851 29.8278 24.7976 28.9044 22.5421 28.8063C20.2866 28.7082 18.4969 28.8472 17.884 28.9289ZM33.942 37.9998C34.9575 37.9998 35.7807 37.1766 35.7807 36.1611C35.7807 35.1456 34.9575 34.3224 33.942 34.3224C32.9265 34.3224 32.1033 35.1456 32.1033 36.1611C32.1033 37.1766 32.9265 37.9998 33.942 37.9998Z" fill="black"/>
</svg>
