<svg width="50" height="50" viewBox="0 0 50 50" fill="none" xmlns="http://www.w3.org/2000/svg">
<path d="M11.091 10.515L8.27446 1.68991C7.67361 0.337981 6.39679 0 5.83348 0H2.2659C0.463336 0 0.0126938 1.50214 0.0126938 2.25321V11.6416C0.0126938 13.5944 1.64001 14.0826 2.45367 14.0826H8.65C11.5041 14.0826 11.4665 11.7042 11.091 10.515Z" fill="black"/>
<path d="M13.1564 11.6416L10.7154 3.56758C9.81415 1.01394 11.7169 0.125178 12.7809 0H23.4836C25.4364 0 26.175 0.500713 26.3001 0.75107C28.4908 2.75392 33.1724 7.06006 34.3741 8.26177C35.5758 9.46348 35.7511 10.515 35.6885 10.8905V17.0868C35.6885 19.4903 34.1864 19.9659 33.4353 19.9033H29.8677C27.3141 19.9033 26.8008 19.5278 26.8634 19.34L19.3527 14.0826H16.1607C13.9075 14.0826 13.219 12.4552 13.1564 11.6416Z" fill="black"/>
<path d="M47.7056 0H33.8108C33.2475 0 32.4965 0.187767 31.9332 1.68991C31.4825 2.89162 31.9957 3.69276 32.3087 3.94312C33.1224 4.69419 34.9374 6.38409 35.6885 7.13516C36.4396 7.88623 38.0043 7.69847 38.6928 7.5107L48.0812 4.88195C48.7071 4.75678 49.9588 4.09333 49.9588 2.44098C49.9588 0.788623 48.4567 0.125178 47.7056 0Z" fill="black"/>
<path d="M37.5662 17.4624V12.2049C37.416 10.1019 38.7554 9.32578 39.4439 9.2006C40.8208 8.76248 44.1756 7.73602 46.579 7.13516C48.9824 6.53431 49.8337 8.26177 49.9588 9.2006V16.8991C49.9588 18.8519 48.4567 19.4652 47.7056 19.5278C46.0157 19.653 42.1102 19.9033 40.0072 19.9033C37.9042 19.9033 37.5036 18.276 37.5662 17.4624Z" fill="black"/>
<path d="M44.138 21.4055L47.1423 21.2177C49.2453 21.2177 49.8962 22.5947 49.9588 23.2832V36.2391C50.084 36.9902 49.9964 38.6425 48.6445 39.2434C47.2925 39.8443 46.2035 39.2434 45.8279 38.8679C44.6388 37.6161 41.9599 34.8121 40.7582 33.6104C39.5565 32.4087 39.6316 30.8565 39.8194 30.2306C40.2575 28.791 41.2464 25.4613 41.6971 23.6587C42.1477 21.8561 43.5121 21.4055 44.138 21.4055Z" fill="black"/>
<path d="M49.02 44.3131L40.1949 35.488C38.843 34.1361 37.1281 34.9247 36.4396 35.488L30.9943 40.9333C30.093 41.8346 29.9929 42.6858 30.0555 42.9987V47.8807C30.0555 49.2326 31.4324 49.821 32.1209 49.9461H48.0812L48.4567 49.7584C48.9574 49.3828 49.9588 48.2938 49.9588 46.9419C49.9588 45.5899 49.3329 44.6261 49.02 44.3131Z" fill="black"/>
<path d="M26.3001 42.4354H19.916C19.165 42.4354 18.4765 43.0613 18.2261 43.3743C17.5377 44.1879 16.1231 46.1908 15.9729 47.6929C15.8227 49.1951 17.1621 49.821 17.8506 49.9461H26.1124C27.7647 49.9461 28.1778 48.6287 28.1778 47.97V44.5009C28.1778 42.9987 26.926 42.498 26.3001 42.4354Z" fill="black"/>
<path d="M13.7197 35.3003L10.5277 34.5492C9.62638 34.3371 8.77518 34.7112 8.46223 34.9247C6.45938 36.4269 2.1908 39.6189 1.1393 40.37C0.0878008 41.1211 -0.0498953 42.0599 0.0126938 42.4354V47.6929C0.0126938 49.4955 1.51483 49.9461 2.2659 49.9461H10.1521C11.3538 49.9461 12.4053 48.9447 12.7809 48.444C13.6571 47.067 15.5974 44.0502 16.3485 42.9987C17.0995 41.9472 17.0369 40.6829 16.9118 40.1822C16.6614 39.5563 16.048 38.0417 15.5974 36.9902C15.1468 35.9387 14.1578 35.4255 13.7197 35.3003Z" fill="black"/>
<path d="M0.0126938 34.3614V18.0257C0.137874 17.2746 0.80132 15.7725 2.45367 15.7725C4.10602 15.7725 4.76947 17.2746 4.89465 18.0257C5.64572 21.2803 7.26052 28.3153 7.71116 30.4183C8.16181 32.5213 7.27304 33.673 6.77233 33.9859L3.76805 36.2391C3.58028 36.3643 2.90432 36.6147 1.70261 36.6147C0.500893 36.6147 0.0752844 35.1125 0.0126938 34.3614Z" fill="black"/>
<path d="M17.8506 15.7725H9.02554C6.77233 15.7725 6.58456 17.9005 6.77233 18.9645C7.5234 22.2817 9.10064 29.2542 9.40107 30.6061C9.7015 31.958 10.6529 32.6715 11.091 32.8593C11.3413 32.9219 12.2551 33.1597 13.9075 33.6104C15.5598 34.061 16.4736 33.0471 16.724 32.4838C18.852 29.9176 23.4085 24.4098 24.6102 22.9076C25.8119 21.4055 24.6102 19.9033 23.8592 19.34C22.8577 18.6516 20.6671 17.1244 19.916 16.5235C19.165 15.9227 18.2261 15.7725 17.8506 15.7725Z" fill="black"/>
<path d="M26.8634 22.9076L17.8506 33.9859C17.1174 34.8872 17.1695 35.8636 17.2873 36.2391C17.3499 36.5521 17.6253 37.5159 18.2261 38.8679C18.827 40.2198 19.9786 40.6829 20.4793 40.7455H26.3001C28.7036 40.7455 29.4296 40.2448 29.4922 39.9945L37.5662 31.9205C37.9417 30.6061 38.843 27.3765 39.4439 24.9731C40.0447 22.5696 38.3173 21.7184 37.3784 21.5933H29.1167C28.2154 21.5933 27.239 22.4695 26.8634 22.9076Z" fill="black"/>
</svg>
