<svg width="68" height="67" viewBox="0 0 68 67" fill="none" xmlns="http://www.w3.org/2000/svg">
<path fill-rule="evenodd" clip-rule="evenodd" d="M10 10V0.5H22V10L32 17.5V20H0V17.5L10 10ZM5 31.5L2.5 34H0V66.5H32V34H29.5L27 31.5H5ZM6 45H27V61H6V45ZM19 37H14V40H19V37ZM9 39C9 40.1046 8.10457 41 7 41C5.89543 41 5 40.1046 5 39C5 37.8954 5.89543 37 7 37C8.10457 37 9 37.8954 9 39ZM26 41C27.1046 41 28 40.1046 28 39C28 37.8954 27.1046 37 26 37C24.8954 37 24 37.8954 24 39C24 40.1046 24.8954 41 26 41Z" fill="black"/>
<path fill-rule="evenodd" clip-rule="evenodd" d="M68 34H35V44H68V34ZM47.5 38V40.5H55.5V39C54.1667 38.5 50.7 37.6 47.5 38Z" fill="black"/>
<path fill-rule="evenodd" clip-rule="evenodd" d="M68 46H35V67H68V46ZM47.5 50.0997V52.5997H55.5V51.0997C54.1667 50.5997 50.7 49.6997 47.5 50.0997Z" fill="black"/>
</svg>
