<svg width="50" height="53" viewBox="0 0 50 53" fill="none" xmlns="http://www.w3.org/2000/svg">
<path fill-rule="evenodd" clip-rule="evenodd" d="M7.80537 4.06483C8.57796 3.2064 9.80641 2.60001 11.6 2.60001C13.3941 2.60001 14.6434 3.20577 15.4514 4.04523C16.2377 4.86217 16.5545 5.84724 16.5984 6.5501C16.5995 6.56672 16.6 6.58336 16.6 6.60001V10H18.6C19.0418 10 19.4 10.3582 19.4 10.8V14.8C19.4 15.2418 19.0418 15.6 18.6 15.6H16.6V16.6686L17.7314 17.8H30V16.4C30 15.9582 30.3582 15.6 30.8 15.6C31.2418 15.6 31.6 15.9582 31.6 16.4V23.2C31.6 23.6418 31.2418 24 30.8 24C30.3582 24 30 23.6418 30 23.2V22.2H24.9905C25.0267 22.3914 25.0429 22.5825 25.0399 22.7726C25.0305 23.3694 24.8327 23.8982 24.5613 24.3393C24.0316 25.2 23.1744 25.8072 22.5578 26.1155C22.4467 26.1711 22.3242 26.2 22.2 26.2H18.6V52.2C18.6 52.6418 18.2418 53 17.8 53H15.2C14.8075 53 14.4729 52.7152 14.4103 52.3278L12.725 41.9098L9.15782 52.4563C9.04791 52.7813 8.74305 53 8.4 53H5.6C5.38263 53 5.17461 52.9116 5.02381 52.755C4.87301 52.5984 4.79242 52.3872 4.80056 52.17L5.38273 36.6456L0.392158 33.6882C0.149066 33.5442 0 33.2826 0 33V17.6C0 17.1582 0.358172 16.8 0.8 16.8H6.37185L6.8 16.1578V6.60001C6.8 5.89657 7.05583 4.89765 7.80537 4.06483ZM8.02815 17.2L7.59223 17.8539L7.17461 30.8H17V26.1361L12.9336 25.7972C12.6481 25.7735 12.3972 25.5989 12.2756 25.3396L9.27563 18.9396C9.18538 18.747 9.17549 18.5265 9.24817 18.3266L9.65784 17.2H8.02815ZM11.3603 17.2L10.8654 18.5612L13.5278 24.2412L17.8333 24.6H22C22.4212 24.36 22.9118 23.967 23.1987 23.5007C23.3539 23.2484 23.4362 22.9973 23.4401 22.7474C23.4426 22.5891 23.4142 22.4071 23.328 22.2H15.2C14.8678 22.2 14.5702 21.9947 14.4522 21.6842L12.7482 17.2H11.3603ZM14.4598 17.2L15.7518 20.6H16.9223L16.653 18.9844L15.2343 17.5657C15.1324 17.4638 15.0608 17.3372 15.0254 17.2H14.4598ZM16.6 14H17.8V11.6H16.6V14ZM15 12.979V15.6H8.4V8.20001H9.39936C9.3134 9.03008 9.45029 9.99449 10.0612 10.861C10.8952 12.044 12.4681 12.8421 15 12.979ZM15 11.3767V8.20001H11.0115C10.9203 8.75848 10.9895 9.40099 11.3688 9.93905C11.8098 10.5645 12.8092 11.2438 15 11.3767ZM14.9976 6.60001C14.9619 6.23171 14.7736 5.64826 14.2986 5.15478C13.8233 4.66091 13.0059 4.20001 11.6 4.20001C10.1936 4.20001 9.42204 4.66028 8.99464 5.13518C8.54417 5.63569 8.4 6.23678 8.4 6.60001H14.9976ZM18.3444 19.4L18.5444 20.6H30V19.4H18.3444ZM17 32.4H7.123L6.99958 36.2258L6.99944 36.23L6.43056 51.4H7.82607L12.2422 38.3437C12.36 37.9955 12.6999 37.7723 13.0662 37.8028C13.4326 37.8332 13.731 38.1094 13.7897 38.4723L15.881 51.4H17V32.4ZM5.97378 18.4H1.6V32.5442L5.44403 34.8221L5.97378 18.4Z" fill="black"/>
<path fill-rule="evenodd" clip-rule="evenodd" d="M26.6 33.2C25.6058 33.2 24.8 34.0059 24.8 35C24.8 35.9941 25.6058 36.8 26.6 36.8C27.5941 36.8 28.4 35.9941 28.4 35C28.4 34.0059 27.5941 33.2 26.6 33.2ZM23.2 35C23.2 33.1222 24.7222 31.6 26.6 31.6C28.4777 31.6 30 33.1222 30 35C30 36.8778 28.4777 38.4 26.6 38.4C24.7222 38.4 23.2 36.8778 23.2 35Z" fill="black"/>
<circle cx="27.2" cy="6.80001" r="1.2" fill="black"/>
<circle cx="38.4" cy="1.2" r="1.2" fill="black"/>
<circle cx="38.4" cy="44.4" r="1.2" fill="black"/>
<circle cx="48.8" cy="39.6" r="1.2" fill="black"/>
<path fill-rule="evenodd" clip-rule="evenodd" d="M47.0341 5.51222C47.3035 5.86243 47.238 6.3647 46.8878 6.63409L45.8044 7.46742C45.4542 7.73681 44.9519 7.6713 44.6826 7.32109C44.4132 6.97089 44.4787 6.46861 44.8289 6.19922L45.9122 5.36589C46.2624 5.0965 46.7647 5.16202 47.0341 5.51222ZM43.7841 8.01222C44.0535 8.36243 43.988 8.8647 43.6378 9.13409L41.4711 10.8008C41.1209 11.0701 40.6186 11.0046 40.3492 10.6544C40.0798 10.3042 40.1454 9.80195 40.4956 9.53256L42.6622 7.86589C43.0124 7.5965 43.5147 7.66202 43.7841 8.01222ZM39.4508 11.3456C39.7201 11.6958 39.6546 12.198 39.3044 12.4674L37.1378 14.1341C36.7876 14.4035 36.2853 14.338 36.0159 13.9878C35.7465 13.6376 35.812 13.1353 36.1622 12.8659L38.3289 11.1992C38.6791 10.9298 39.1814 10.9954 39.4508 11.3456ZM49.168 14.376C49.2917 14.8001 49.0481 15.2443 48.624 15.368L46.824 15.893C46.3998 16.0167 45.9557 15.7731 45.832 15.349C45.7083 14.9248 45.9518 14.4807 46.376 14.357L48.176 13.832C48.6001 13.7083 49.0443 13.9518 49.168 14.376ZM35.1174 14.6789C35.3868 15.0291 35.3213 15.5314 34.9711 15.8008L33.8878 16.6341C33.5376 16.9035 33.0353 16.838 32.7659 16.4878C32.4965 16.1376 32.562 15.6353 32.9122 15.3659L33.9956 14.5326C34.3458 14.2632 34.848 14.3287 35.1174 14.6789ZM43.768 15.951C43.8917 16.3751 43.6481 16.8193 43.224 16.943L39.624 17.993C39.1998 18.1167 38.7557 17.8731 38.632 17.449C38.5083 17.0248 38.7518 16.5807 39.176 16.457L42.776 15.407C43.2001 15.2833 43.6443 15.5268 43.768 15.951ZM36.568 18.051C36.6917 18.4751 36.4481 18.9193 36.024 19.043L34.224 19.568C33.7998 19.6917 33.3557 19.4481 33.232 19.024C33.1083 18.5998 33.3518 18.1557 33.776 18.032L35.576 17.507C36.0001 17.3833 36.4443 17.6268 36.568 18.051ZM33.232 20.976C33.3557 20.5518 33.7998 20.3083 34.224 20.432L36.024 20.957C36.4481 21.0807 36.6917 21.5248 36.568 21.949C36.4443 22.3731 36.0001 22.6167 35.576 22.493L33.776 21.968C33.3518 21.8443 33.1083 21.4001 33.232 20.976ZM38.632 22.551C38.7557 22.1268 39.1998 21.8833 39.624 22.007L43.224 23.057C43.6481 23.1807 43.8917 23.6248 43.768 24.049C43.6443 24.4731 43.2001 24.7167 42.776 24.593L39.176 23.543C38.7518 23.4193 38.5083 22.9751 38.632 22.551ZM32.3634 23.3154C32.631 22.9639 33.133 22.8958 33.4845 23.1634L34.6012 24.0134C34.9528 24.281 35.0208 24.783 34.7532 25.1345C34.4856 25.4861 33.9837 25.5542 33.6321 25.2866L32.5154 24.4366C32.1639 24.1689 32.0958 23.667 32.3634 23.3154ZM45.832 24.651C45.9557 24.2268 46.3998 23.9833 46.824 24.107L48.624 24.632C49.0481 24.7557 49.2917 25.1998 49.168 25.624C49.0443 26.0481 48.6001 26.2917 48.176 26.168L46.376 25.643C45.9518 25.5193 45.7083 25.0751 45.832 24.651ZM35.7134 25.8654C35.981 25.5139 36.483 25.4458 36.8345 25.7134L39.0679 27.4134C39.4194 27.681 39.4875 28.183 39.2199 28.5345C38.9523 28.8861 38.4503 28.9542 38.0988 28.6866L35.8654 26.9866C35.5139 26.7189 35.4458 26.217 35.7134 25.8654ZM40.1801 29.2654C40.4477 28.9139 40.9496 28.8458 41.3012 29.1134L43.5345 30.8134C43.8861 31.081 43.9542 31.583 43.6866 31.9345C43.4189 32.2861 42.917 32.3542 42.5654 32.0866L40.3321 30.3866C39.9805 30.1189 39.9125 29.617 40.1801 29.2654ZM44.6468 32.6654C44.9144 32.3139 45.4163 32.2458 45.7679 32.5134L46.8845 33.3634C47.2361 33.631 47.3042 34.133 47.0366 34.4845C46.7689 34.8361 46.267 34.9042 45.9154 34.6366L44.7988 33.7866C44.4472 33.5189 44.3792 33.017 44.6468 32.6654Z" fill="black"/>
</svg>
