<svg width="50" height="62" viewBox="0 0 50 62" fill="none" xmlns="http://www.w3.org/2000/svg">
<path fill-rule="evenodd" clip-rule="evenodd" d="M25.1909 0.0833565C25.3912 -0.0319422 25.6382 -0.0273374 25.8341 0.0953502L30.4824 3.00555C30.6668 3.121 30.7789 3.32418 30.7789 3.54286V23.8563L49.7555 38.597C49.9097 38.7168 50 38.9018 50 39.098V44.6653C50 44.8932 49.8783 45.1034 49.6815 45.2158L20.4101 61.9178C20.2123 62.0307 19.9692 62.0271 19.7748 61.9083L0.302421 50.0144C0.114666 49.8997 0 49.6946 0 49.4735V44.1592C0 44.0082 0.0536383 43.8621 0.151221 43.7475L14.3216 27.0966V6.70612C14.3216 6.47909 14.4424 6.26947 14.6381 6.15683L25.1909 0.0833565ZM15.1006 28.1255L1.59383 43.9966L19.456 54.5587L19.101 30.2461L15.1006 28.1255ZM20.3573 30.2349L20.7131 54.6008L48.2366 39.015L30.0908 24.9197L20.3573 30.2349ZM29.5226 23.7907V4.62815L20.3518 9.85859V28.7986L29.5226 23.7907ZM19.0955 28.8133L15.5779 26.9487V7.80343L19.0955 9.85455V28.8133ZM19.7271 8.76078L28.9204 3.5175L25.489 1.3691L16.2096 6.70971L19.7271 8.76078ZM48.7437 40.1794L20.7286 56.0436V60.2818L48.7437 44.2966V40.1794ZM19.4724 60.2438V56.0357L1.25628 45.2642V49.1172L19.4724 60.2438Z" fill="black"/>
<path d="M20 55V30L15 27.5V7L20 10V30L30.5 24.5L49 39L20 55Z" fill="black"/>
<path fill-rule="evenodd" clip-rule="evenodd" d="M23.4139 58.0192C23.6394 57.8563 23.8679 57.5676 24.0149 57.1807C24.1619 56.7939 24.1832 56.4253 24.1232 56.1524C24.0622 55.8748 23.9374 55.7574 23.84 55.7198C23.7426 55.6823 23.5719 55.6858 23.3424 55.8515C23.1169 56.0143 22.8884 56.303 22.7414 56.6899C22.5944 57.0767 22.5732 57.4453 22.6331 57.7182C22.6941 57.9959 22.8189 58.1133 22.9163 58.1508C23.0137 58.1884 23.1844 58.1849 23.4139 58.0192ZM22.7367 58.6235C23.3475 58.859 24.1299 58.294 24.4842 57.3616C24.8385 56.4293 24.6305 55.4826 24.0196 55.2471C23.4088 55.0117 22.6264 55.5766 22.2721 56.509C21.9178 57.4413 22.1258 58.388 22.7367 58.6235Z" fill="black"/>
<path fill-rule="evenodd" clip-rule="evenodd" d="M27.6626 55.582C27.8882 55.4192 28.1167 55.1305 28.2637 54.7436C28.4107 54.3568 28.4319 53.9882 28.372 53.7153C28.311 53.4376 28.1862 53.3202 28.0888 53.2827C27.9914 53.2451 27.8207 53.2486 27.5912 53.4143C27.3657 53.5772 27.1372 53.8659 26.9902 54.2528C26.8432 54.6396 26.8219 55.0082 26.8819 55.2811C26.9429 55.5587 27.0676 55.6761 27.1651 55.7137C27.2625 55.7512 27.4332 55.7477 27.6626 55.582ZM26.9855 56.1864C27.5963 56.4218 28.3787 55.8569 28.733 54.9245C29.0873 53.9922 28.8793 53.0455 28.2684 52.81C27.6575 52.5745 26.8752 53.1395 26.5209 54.0719C26.1666 55.0042 26.3746 55.9509 26.9855 56.1864Z" fill="black"/>
<path fill-rule="evenodd" clip-rule="evenodd" d="M31.934 53.0514C32.1596 52.8886 32.388 52.5998 32.535 52.213C32.682 51.8262 32.7033 51.4576 32.6433 51.1847C32.5823 50.907 32.4576 50.7896 32.3602 50.7521C32.2627 50.7145 32.092 50.718 31.8626 50.8837C31.637 51.0466 31.4086 51.3353 31.2616 51.7221C31.1146 52.109 31.0933 52.4776 31.1533 52.7505C31.2143 53.0281 31.339 53.1455 31.4364 53.1831C31.5339 53.2206 31.7046 53.2171 31.934 53.0514ZM31.2568 53.6558C31.8677 53.8912 32.6501 53.3263 33.0043 52.3939C33.3586 51.4615 33.1506 50.5148 32.5398 50.2794C31.9289 50.0439 31.1465 50.6089 30.7922 51.5412C30.438 52.4736 30.646 53.4203 31.2568 53.6558Z" fill="black"/>
<path fill-rule="evenodd" clip-rule="evenodd" d="M37.6885 50.1061C37.5497 50.1061 37.4373 49.9928 37.4373 49.8531V47.5755C37.4373 47.4358 37.5497 47.3225 37.6885 47.3225C37.8273 47.3225 37.9398 47.4358 37.9398 47.5755V49.8531C37.9398 49.9928 37.8273 50.1061 37.6885 50.1061Z" fill="black"/>
<path fill-rule="evenodd" clip-rule="evenodd" d="M39.4472 49.0939C39.3084 49.0939 39.1959 48.9806 39.1959 48.8408V46.5633C39.1959 46.4235 39.3084 46.3102 39.4472 46.3102C39.5859 46.3102 39.6984 46.4235 39.6984 46.5633V48.8408C39.6984 48.9806 39.5859 49.0939 39.4472 49.0939Z" fill="black"/>
<path fill-rule="evenodd" clip-rule="evenodd" d="M41.4573 47.8286C41.3185 47.8286 41.2061 47.7153 41.2061 47.5755V45.298C41.2061 45.1582 41.3185 45.0449 41.4573 45.0449C41.5961 45.0449 41.7086 45.1582 41.7086 45.298V47.5755C41.7086 47.7153 41.5961 47.8286 41.4573 47.8286Z" fill="black"/>
<path fill-rule="evenodd" clip-rule="evenodd" d="M43.2161 46.8163C43.0773 46.8163 42.9648 46.703 42.9648 46.5633V44.2857C42.9648 44.146 43.0773 44.0327 43.2161 44.0327C43.3549 44.0327 43.4674 44.146 43.4674 44.2857V46.5633C43.4674 46.703 43.3549 46.8163 43.2161 46.8163Z" fill="black"/>
<path fill-rule="evenodd" clip-rule="evenodd" d="M44.9749 45.8041C44.8361 45.8041 44.7236 45.6908 44.7236 45.551V43.2735C44.7236 43.1337 44.8361 43.0204 44.9749 43.0204C45.1137 43.0204 45.2261 43.1337 45.2261 43.2735V45.551C45.2261 45.6908 45.1137 45.8041 44.9749 45.8041Z" fill="black"/>
</svg>
