<svg width="50" height="50" viewBox="0 0 50 50" fill="none" xmlns="http://www.w3.org/2000/svg">
<path d="M5.5538 6.30434L16.6615 6.45444L17.5621 6.75465L24.0165 13.3592L24.3167 14.1097V25.3675C24.1166 26.0179 23.326 27.3188 21.765 27.3188C20.2039 27.3188 19.7136 26.0179 19.6635 25.3675V16.8116L13.5093 22.9658C15.0604 24.4669 18.3426 27.6491 19.0631 28.3696C19.7836 29.09 19.9637 30.471 19.9637 31.0714V41.2785C19.9137 42.029 19.3933 43.53 17.7122 43.53C16.031 43.53 15.5107 42.129 15.4606 41.4286V31.3716L10.0569 26.118V31.6718L6.60452 41.8789C6.30432 42.5793 5.28362 43.8302 3.60246 43.2298C1.9213 42.6294 2.00135 41.1784 2.25153 40.5279L5.4037 30.7712C5.45373 27.7691 5.5538 21.4948 5.5538 20.4141C5.5538 19.3333 6.05415 18.4627 6.30432 18.1625L13.5093 10.9575H7.80536V14.7101L7.35504 15.911C7.30501 16.2112 6.81467 16.8116 5.2536 16.8116C3.69252 16.8116 3.30225 15.4106 3.30225 14.7101V8.55589C3.30225 6.63457 4.80329 6.2543 5.5538 6.30434Z" fill="black"/>
<circle cx="25.0672" cy="5.25362" r="5.25362" fill="black"/>
<path d="M30.3698 30.2051C31.5558 28.4106 34.1894 28.4105 35.3754 30.2051L41.1061 38.8759C42.4242 40.8703 40.9939 43.53 38.6033 43.53H27.1419C24.7513 43.53 23.321 40.8703 24.6391 38.8759L30.3698 30.2051Z" fill="black"/>
<rect x="0.88269" y="9.93207" width="36.588" height="1.53677" transform="rotate(35.0589 0.88269 9.93207)" fill="black"/>
<path d="M49.6842 43.53H45.1811C45.4213 42.5694 45.081 42.029 44.8809 41.8789L39.0269 33.1729C39.3271 32.8226 40.0776 31.912 40.678 31.0714C41.0382 30.2308 41.5286 30.7212 41.7287 31.0714C44.2805 34.7239 49.4741 42.1491 49.8343 42.6294C50.1946 43.1097 49.8843 43.4299 49.6842 43.53Z" fill="black"/>
</svg>
