<svg width="56" height="74" viewBox="0 0 56 74" fill="none" xmlns="http://www.w3.org/2000/svg">
<path fill-rule="evenodd" clip-rule="evenodd" d="M12 19.0889V56.5H8V18.9144L8.00731 18.8292C8.28781 15.5567 9.72012 11.0291 12.8528 7.28009C16.0426 3.46263 20.9655 0.5 28 0.5C35.0424 0.5 39.8851 3.46964 43.0315 7.29128C46.1192 11.0416 47.5262 15.541 47.9799 18.7172L48 18.8579V56.5H44V19.1462C43.5995 16.4981 42.4048 12.8233 39.9435 9.83372C37.4982 6.86369 33.7576 4.5 28 4.5C22.2345 4.5 18.4074 6.87071 15.9222 9.8449C13.4069 12.8552 12.2371 16.5311 12 19.0889Z" fill="black"/>
<path d="M18 11L25.5 19.5H14C14 15.5 16.6667 12.1667 18 11Z" fill="black"/>
<path d="M18 11L25.5 19.5H14C14 15.5 16.6667 12.1667 18 11Z" fill="black"/>
<path d="M27.2381 6.49998L27.2381 18.1253C25.2047 16.1523 20.7224 11.1713 19 9.5C21.7855 6.62928 25.4687 6.40878 27.2381 6.49998Z" fill="black"/>
<path d="M27.2381 6.49998L27.2381 18.1253C25.2047 16.1523 20.7224 11.1713 19 9.5C21.7855 6.62928 25.4687 6.40878 27.2381 6.49998Z" fill="black"/>
<path d="M38.1421 11L30.6421 19.5H42.1421C42.1421 15.5 39.4754 12.1667 38.1421 11Z" fill="black"/>
<path d="M38.1421 11L30.6421 19.5H42.1421C42.1421 15.5 39.4754 12.1667 38.1421 11Z" fill="black"/>
<path d="M29.0104 6.50001L29.0103 18.1421C31.0138 16.1387 35.3029 11.1971 37 9.5C34.1716 6.67157 30.7781 6.38216 29.0104 6.50001Z" fill="black"/>
<path d="M29.0104 6.50001L29.0103 18.1421C31.0138 16.1387 35.3029 11.1971 37 9.5C34.1716 6.67157 30.7781 6.38216 29.0104 6.50001Z" fill="black"/>
<rect x="14" y="22" width="13" height="10" fill="black"/>
<rect x="14" y="34" width="13" height="11" fill="black"/>
<rect x="14" y="47" width="13" height="10" fill="black"/>
<rect x="29" y="22" width="13" height="10" fill="black"/>
<rect x="29" y="34" width="13" height="11" fill="black"/>
<rect x="29" y="47" width="13" height="10" fill="black"/>
<rect x="7" y="67" width="7" height="7" fill="black"/>
<rect x="42" y="67" width="7" height="7" fill="black"/>
<rect y="59" width="56" height="6" fill="black"/>
</svg>
