<?xml version="1.0" encoding="utf-8"?>
<!-- Svg Vector Icons : http://www.onlinewebfonts.com/icon -->
<!DOCTYPE svg PUBLIC "-//W3C//DTD SVG 1.1//EN" "http://www.w3.org/Graphics/SVG/1.1/DTD/svg11.dtd">
<svg version="1.1" xmlns="http://www.w3.org/2000/svg" xmlns:xlink="http://www.w3.org/1999/xlink" x="0px" y="0px" viewBox="0 0 1000 1000" enable-background="new 0 0 1000 1000" xml:space="preserve">
<metadata> Svg Vector Icons : http://www.onlinewebfonts.com/icon </metadata>
<g><g><g><polygon points="802.6,839 802.6,812.1 766,825.6 795.4,842.3 "/><polygon points="269.4,714.8 385.3,785.4 385.3,723.2 269.4,652.6 "/><polygon points="772.2,718.6 798.8,709.4 798.8,647.2 772.2,656.4 "/><polygon points="564.8,789.3 749.5,725.3 749.5,663.1 564.8,727.1 "/><polygon points="250.2,640.9 184.8,601.1 184.8,663.3 250.2,703.1 "/><polygon points="404.5,734.8 404.5,797 454.6,827.5 545.6,796 545.6,733.8 454.6,765.3 "/><polygon points="385.3,640.4 269.4,569.8 269.4,632 385.3,702.6 "/><polygon points="772.2,635.9 798.8,626.6 798.8,564.4 772.2,573.6 "/><polygon points="564.8,706.6 749.5,642.5 749.5,580.3 564.8,644.4 "/><polygon points="250.2,558.1 184.8,518.3 184.8,580.5 250.2,620.4 "/><polygon points="545.6,651 454.6,682.5 404.5,652.1 404.5,714.2 454.6,744.8 545.6,713.2 "/><polygon points="385.3,554.7 269.4,484.1 269.4,546.3 385.3,616.9 "/><polygon points="772.2,550.1 798.8,540.9 798.8,478.7 772.2,488 "/><polygon points="564.8,620.8 749.5,556.8 749.5,494.6 564.8,558.7 "/><polygon points="250.2,472.4 184.8,432.6 184.8,494.8 250.2,534.6 "/><polygon points="545.6,565.3 454.6,596.8 404.5,566.4 404.5,628.6 454.6,659.1 545.6,627.5 "/><polygon points="385.3,469.9 269.4,399.3 269.4,461.5 385.3,532.1 "/><polygon points="772.2,465.3 798.8,456.1 798.8,393.9 772.2,403.2 "/><polygon points="564.8,536 749.5,472 749.5,409.8 564.8,473.9 "/><polygon points="250.2,387.6 184.8,347.8 184.8,410 250.2,449.8 "/><polygon points="545.6,480.5 454.6,512 404.5,481.6 404.5,543.8 454.6,574.2 545.6,542.7 "/><polygon points="385.3,384.2 269.4,313.6 269.4,375.8 385.3,446.4 "/><polygon points="772.2,379.6 798.8,370.4 798.8,308.2 772.2,317.4 "/><polygon points="564.8,450.3 749.5,386.2 749.5,324.1 564.8,388.1 "/><polygon points="250.2,301.9 184.8,262.1 184.8,324.3 250.2,364.1 "/><polygon points="545.6,394.8 454.6,426.3 404.5,395.8 404.5,458 454.6,488.5 545.6,457 "/><polygon points="385.3,290.4 269.4,219.8 269.4,282 385.3,352.6 "/><polygon points="798.8,214.4 772.2,223.7 772.2,285.9 798.8,276.6 "/><polygon points="564.8,356.6 749.5,292.5 749.5,230.3 564.8,294.4 "/><polygon points="250.2,208.2 184.8,168.3 184.8,230.5 250.2,270.4 "/><polygon points="545.6,301 454.6,332.6 404.5,302.1 404.5,364.3 454.6,394.8 545.6,363.2 "/><path d="M800.1,181.9v-33.5c0-15.8-12.4-32.1-27.8-36.2L530.6,13.3c-8.8-3.6-18.5-4.3-27.7-2L213.2,84c-15.7,2.1-28.4,16.7-28.4,32.5v27.7l270,156.8L800.1,181.9z M440.3,212.1L241.6,108.6c-1.9-1-3.1-3.1-2.8-5.3c0.2-2.2,1.8-4,3.9-4.5l256.4-66.3c8.8-2.2,18-1.6,26.4,1.9l201,84.6c2,0.9,3.3,2.9,3.2,5.1c-0.1,2.2-1.5,4.1-3.6,4.8l-257.6,85.4C459.2,217.4,449,216.6,440.3,212.1z"/><path d="M537.3,810.8l-82.8,31.5L186.8,681.8v151.6c2.3,2.2,244,147.9,244,147.9c12.9,9.2,35.1,11.5,49.6,5.1l117.4-44.9l2.4-59.5L537,839.6L537.3,810.8z M240.2,798.3l-17.9-12.5v-62.2l17.9,12V798.3z M310.1,842.6l-18-12.6v-62.1l18,11.9V842.6z M393.2,896.4l-17.9-12.6v-62.1l17.9,11.9V896.4z M509.4,915.8l-26.1,12.5v-73.5l26.1-10.2V915.8z"/><polygon points="779.7,808.2 719.6,744.8 551.4,804.1 622.2,875.5 "/><polygon points="548,832.2 615.8,878.2 548,811.1 "/><polygon points="646.4,927.1 609.7,902.5 609.7,928.8 665.5,968.6 665.5,957.3 646.4,942.7 "/><polygon points="795.5,873.7 795.5,858.7 750.4,833 609.7,894.9 653.3,923 653.3,940.6 672.4,954.4 672.4,971.4 815.2,897.2 815.2,884.7 "/><polygon points="749.5,737.2 736.3,741.8 800.1,804 800.1,721.4 768.6,730.6 "/></g></g><g></g><g></g><g></g><g></g><g></g><g></g><g></g><g></g><g></g><g></g><g></g><g></g><g></g><g></g><g></g></g>
</svg>