<svg width="54" height="70" viewBox="0 0 54 70" fill="none" xmlns="http://www.w3.org/2000/svg">
<path d="M0 1.47124C0 0.658695 0.658696 0 1.47124 0V0C2.28378 0 2.94248 0.658696 2.94248 1.47124V4.18142H0V1.47124Z" fill="black"/>
<path d="M11.3054 1.47124C11.3054 0.658695 11.9641 0 12.7766 0V0C13.5891 0 14.2478 0.658696 14.2478 1.47124V4.18142H11.3054V1.47124Z" fill="black"/>
<path d="M22.4557 1.47124C22.4557 0.658695 23.1144 0 23.927 0V0C24.7395 0 25.3982 0.658696 25.3982 1.47124V4.18142H22.4557V1.47124Z" fill="black"/>
<path d="M33.6061 1.47124C33.6061 0.658695 34.2648 0 35.0774 0V0C35.8899 0 36.5486 0.658696 36.5486 1.47124V4.18142H33.6061V1.47124Z" fill="black"/>
<path d="M44.9115 1.47124C44.9115 0.658695 45.5702 0 46.3827 0V0C47.1953 0 47.854 0.658696 47.854 1.47124V4.18142H44.9115V1.47124Z" fill="black"/>
<path d="M5.57526 1.47124C5.57526 0.658695 6.23395 0 7.0465 0V0C7.85904 0 8.51773 0.658696 8.51773 1.47124V4.18142H5.57526V1.47124Z" fill="black"/>
<path d="M16.8805 1.47124C16.8805 0.658695 17.5392 0 18.3517 0V0C19.1643 0 19.823 0.658696 19.823 1.47124V4.18142H16.8805V1.47124Z" fill="black"/>
<path d="M28.031 1.47124C28.031 0.658695 28.6897 0 29.5022 0V0C30.3148 0 30.9735 0.658696 30.9735 1.47124V4.18142H28.031V1.47124Z" fill="black"/>
<path d="M39.1814 1.47124C39.1814 0.658695 39.8401 0 40.6526 0V0C41.4652 0 42.1239 0.658696 42.1239 1.47124V4.18142H39.1814V1.47124Z" fill="black"/>
<path d="M50.4868 1.47124C50.4868 0.658695 51.1455 0 51.958 0V0C52.7705 0 53.4292 0.658696 53.4292 1.47124V4.18142H50.4868V1.47124Z" fill="black"/>
<path d="M53.4291 68.5288C53.4291 69.3413 52.7704 70 51.9579 70V70C51.1454 70 50.4867 69.3413 50.4867 68.5288L50.4867 65.8186L53.4291 65.8186L53.4291 68.5288Z" fill="black"/>
<path d="M42.1239 68.5288C42.1239 69.3413 41.4652 70 40.6527 70V70C39.8401 70 39.1814 69.3413 39.1814 68.5288L39.1814 65.8186L42.1239 65.8186L42.1239 68.5288Z" fill="black"/>
<path d="M30.9734 68.5288C30.9734 69.3413 30.3147 70 29.5021 70V70C28.6896 70 28.0309 69.3413 28.0309 68.5288L28.0309 65.8186L30.9734 65.8186L30.9734 68.5288Z" fill="black"/>
<path d="M19.823 68.5288C19.823 69.3413 19.1643 70 18.3518 70V70C17.5392 70 16.8805 69.3413 16.8805 68.5288L16.8805 65.8186L19.823 65.8186L19.823 68.5288Z" fill="black"/>
<path d="M8.51764 68.5288C8.51764 69.3413 7.85894 70 7.0464 70V70C6.23386 70 5.57516 69.3413 5.57516 68.5288L5.57516 65.8186L8.51764 65.8186L8.51764 68.5288Z" fill="black"/>
<path d="M47.854 68.5288C47.854 69.3413 47.1953 70 46.3828 70V70C45.5702 70 44.9115 69.3413 44.9115 68.5288L44.9115 65.8186L47.854 65.8186L47.854 68.5288Z" fill="black"/>
<path d="M36.5486 68.5288C36.5486 69.3413 35.8899 70 35.0774 70V70C34.2649 70 33.6062 69.3413 33.6062 68.5288L33.6062 65.8186L36.5486 65.8186L36.5486 68.5288Z" fill="black"/>
<path d="M25.3983 68.5288C25.3983 69.3413 24.7396 70 23.927 70V70C23.1145 70 22.4558 69.3413 22.4558 68.5288L22.4558 65.8186L25.3983 65.8186L25.3983 68.5288Z" fill="black"/>
<path d="M14.2477 68.5288C14.2477 69.3413 13.589 70 12.7765 70V70C11.964 70 11.3053 69.3413 11.3053 68.5288L11.3053 65.8186L14.2477 65.8186L14.2477 68.5288Z" fill="black"/>
<path d="M2.94251 68.5288C2.9425 69.3413 2.28381 70 1.47127 70V70C0.658723 70 2.69989e-05 69.3413 2.70699e-05 68.5288L2.73069e-05 65.8186L2.94251 65.8186L2.94251 68.5288Z" fill="black"/>
<path fill-rule="evenodd" clip-rule="evenodd" d="M26.7053 25.6894L17.3606 35.0341L26.7053 44.3787L36.0499 35.0341L26.7053 25.6894ZM26.7486 30.862L22.5332 35.0774L26.6805 39.2248L30.896 35.0093L26.7486 30.862Z" fill="black"/>
<path fill-rule="evenodd" clip-rule="evenodd" d="M43.5177 15.3319H9.9115V54.6681H43.5177V15.3319ZM12.6217 26.7146L19.7456 19.5907H12.6217V26.7146ZM40.7301 26.7146L33.6062 19.5907L40.7301 19.5907V26.7146ZM40.7301 43.3628L33.6062 50.4867H40.7301V43.3628ZM12.6991 43.3628L19.823 50.4867H12.6991L12.6991 43.3628ZM39.9683 35.0042L26.6456 21.6814L13.3228 35.0042L26.6456 48.3269L39.9683 35.0042Z" fill="black"/>
<path fill-rule="evenodd" clip-rule="evenodd" d="M46.3053 12.6991H7.12389V57.4558H46.3053V12.6991ZM0 5.57522V64.5796H53.4292V5.57522H0Z" fill="black"/>
</svg>
