<svg width="50" height="50" viewBox="0 0 50 50" fill="none" xmlns="http://www.w3.org/2000/svg">
<rect x="16.4062" width="17.1875" height="4.91071" fill="black"/>
<rect y="11.2723" width="11.4955" height="5.91518" fill="black"/>
<path fill-rule="evenodd" clip-rule="evenodd" d="M11.4955 19.8661H0V50H11.4955V19.8661ZM7.25446 24.5536H4.24107V28.5714H7.25446V24.5536ZM4.24107 31.1384H7.25446V35.1562H4.24107V31.1384ZM7.25446 37.6116H4.24107V41.6294H7.25446V37.6116Z" fill="black"/>
<path fill-rule="evenodd" clip-rule="evenodd" d="M50.0001 19.8661H38.5045V50H50.0001V19.8661ZM45.7589 24.5536H42.7455V28.5714H45.7589V24.5536ZM42.7455 31.1384H45.7589V35.1562H42.7455V31.1384ZM45.7589 37.6116H42.7455V41.6294H45.7589V37.6116Z" fill="black"/>
<rect x="38.5045" y="11.2723" width="11.4955" height="5.91518" fill="black"/>
<path fill-rule="evenodd" clip-rule="evenodd" d="M35.8259 7.8125H14.5089V50H35.8259V7.8125ZM20.6473 12.6116H17.6339V16.6295H20.6473V12.6116ZM17.6339 25.558H20.6473V29.5759H17.6339V25.558ZM20.6473 19.0848H17.6339V23.1027H20.6473V19.0848ZM17.6339 32.0312H20.6473V36.0491H17.6339V32.0312ZM26.4509 12.6116H23.4375V16.6295H26.4509V12.6116ZM23.4375 25.558H26.4509V29.5759H23.4375V25.558ZM26.4509 19.0848H23.4375V23.1027H26.4509V19.0848ZM23.4375 32.0312H26.4509V36.0491H23.4375V32.0312ZM32.2545 12.6116H29.2411V16.6295H32.2545V12.6116ZM29.2411 25.558H32.2545V29.5759H29.2411V25.558ZM32.2545 19.0848H29.2411V23.1027H32.2545V19.0848ZM29.2411 32.0312H32.2545V36.0491H29.2411V32.0312ZM17.6897 49.9442V46.0938C17.8385 43.843 19.4978 39.3415 24.9442 39.3415C30.3906 39.3415 32.1243 43.6198 32.3103 45.7589V49.9442H29.4085V46.2054C29.3155 45.2753 28.6049 43.2366 26.5067 42.5223V49.9442H23.4933V42.5223C22.5632 42.9501 20.692 44.2634 20.6473 46.0938C20.6027 47.9241 20.6287 49.4234 20.6473 49.9442H17.6897Z" fill="black"/>
</svg>
