<svg width="59" height="76" viewBox="0 0 59 76" fill="none" xmlns="http://www.w3.org/2000/svg">
<path fill-rule="evenodd" clip-rule="evenodd" d="M25.2137 74V56L29.7521 54V54.5C29.7521 54.3333 30.2564 54 32.2735 54C34.2906 54 35.1311 51.8161 35.2991 50.7241V8.5C35.2991 3 41.3504 2.00001 41.8547 2.00001C42.6615 1.04308e-05 44.5442 0.50001 45.3846 1.00001L49.9231 4.50001V9.50001L41.8547 4.50001C39.0308 4.50001 37.8043 7.30864 37.5441 8.71296C37.6362 20.8086 37.7652 46.1448 37.5441 50.7241C37.3229 55.3035 33.9382 56.4828 32.2735 56.5H29.7521V70.5C29.7521 71.8333 28.8444 74.4 25.2137 74ZM41.3504 16.5L49.9231 22.5V13L41.3504 7.00001V16.5ZM52.9487 30.5H57.4872V7.00001H52.9487V30.5ZM52.9487 33V43H57.4872V33H52.9487ZM59 75.5H51.4359V65.5H52.9487V45.5H57.4872V65.5H59V75.5ZM32.7778 62H34.7949V74H32.7778V62ZM2.01709 62H0V74H2.01709V62ZM5.04274 54L9.5812 56V74C8.06838 74.1667 5.04274 73.7 5.04274 70.5V54ZM12.6068 74H22.188V55L30.2564 51V43H4.53846V51L12.6068 55V74ZM30.2564 40.5H4.53846C4.53846 38.1 6.89174 37.1667 8.06838 37H26.7265C29.147 37 30.0883 39.3333 30.2564 40.5ZM15.1282 34H19.6667L17.6496 18.5L15.1282 34ZM10.0855 34H12.6068C13.2792 29.3333 14.6239 19.8 14.6239 19C15.1282 18 15.6325 17 17.6496 17C19.2632 17 20.0028 18.3333 20.1709 19L22.188 34H24.7094L21.1795 15C21.0114 14.6667 20.0701 14 17.6496 14C15.2291 14 13.9516 14.6667 13.6154 15L10.0855 34ZM10.0855 7.00001H24.7094V11L22.188 13C21.6838 12.5 20.0701 11.5 17.6496 11.5C15.2291 11.5 13.2792 12.5 12.6068 13L10.0855 11V7.00001ZM24.7094 4.00001H10.0855C10.0855 2.40001 11.7664 1.66668 12.6068 1.50001H21.6838C23.7009 1.50001 24.5413 3.16668 24.7094 4.00001ZM18.5 45.5H16V48.5C15.1667 48.5 13.5 49.2 13.5 52C13.5 54.8 16.1667 55.5 17.5 55.5C18.6667 55.3333 21 54.4 21 52C21 49.6 19.3333 48.6667 18.5 48.5V45.5ZM17.5 72C19.1569 72 20.5 70.6569 20.5 69C20.5 67.3431 19.1569 66 17.5 66C15.8431 66 14.5 67.3431 14.5 69C14.5 70.6569 15.8431 72 17.5 72Z" fill="black"/>
</svg>
