<?xml version="1.0" encoding="utf-8"?>
<!-- Svg Vector Icons : http://www.onlinewebfonts.com/icon -->
<!DOCTYPE svg PUBLIC "-//W3C//DTD SVG 1.1//EN" "http://www.w3.org/Graphics/SVG/1.1/DTD/svg11.dtd">
<svg version="1.1" xmlns="http://www.w3.org/2000/svg" xmlns:xlink="http://www.w3.org/1999/xlink" x="0px" y="0px" viewBox="0 0 1000 1000" enable-background="new 0 0 1000 1000" xml:space="preserve">
<metadata> Svg Vector Icons : http://www.onlinewebfonts.com/icon </metadata>
<g><g><g><path d="M712.1,541.2c0.1-0.3,81.1-189.4,76.9-191.6c-4.1-2.1-56.4,104.8-94.6,177.2l-12-6.3c33.2-75,84.9-182.3,80.6-184.4c-4.1-2.2-59.8,103-100.3,174.2l-12-6.3c35.5-73.8,90.5-179.4,86.3-181.5c-4.1-2.2-63.2,101.2-106.1,171.2l-12-6.3c37.9-72.5,96.2-176.3,92.1-178.5c-4.1-2.2-90.4,135.6-113.9,172.1c-20.4,31.9-19.1,76.3,7.1,100.1c-35.8,62.6-71.5,125.2-107.3,187.7c-36.7-62.5-73.4-125.1-110.2-187.6c42.8-33.1,49.9-98.8,14.8-150.1c-36.8-54.9-113.7-115.8-159.5-92.8c-44.4,25.7-35.7,123.4-10,184.2c23.7,57.4,82.6,87.6,133.6,70c35.9,72.5,71.7,145,107.5,217.5c-15.7,27.5-31.4,54.9-47.1,82.4c-185.4-34.7-325.8-197-325.8-392.5c0.1-220.6,178.9-399.5,399.5-399.5c220.6,0,399.5,178.8,399.5,399.5c0,196.7-142.3,359.9-329.6,393c-16.3-27.7-32.6-55.4-48.8-83.2c34.8-72.5,69.6-145,104.5-217.6c34.1,8.6,69.9-12.7,86.4-51.1C729.2,500.9,712,541.2,712.1,541.2z M536.8,938.2c-12.2,1-24.4,1.9-36.8,1.9c-13.6,0-27.1-0.8-40.4-2c-7.6,15.8-15.2,31.6-22.8,47.4c20.7,2.7,41.7,4.6,63.2,4.6c20.5,0,40.5-1.7,60.4-4.1C552.5,970,544.6,954.1,536.8,938.2z M500,10C229.8,10,10,229.8,10,500c0,228.5,157.5,420.5,369.5,474.4c8.6-15,17.1-29.9,25.7-44.9C208,886,59.9,710,59.9,500C59.9,257.3,257.3,59.9,500,59.9C742.6,59.9,940,257.3,940,500c0,211.1-149.6,387.9-348.3,430.3c8.7,14.9,17.5,29.8,26.3,44.8C831.3,922,990,729.4,990,500C990,229.8,770.2,10,500,10z M517.2,898.6c-6.5-13.3-13.1-26.5-19.6-39.8c-6.3,13.2-12.7,26.4-19,39.5c7.1,0.4,14.2,1.1,21.4,1.1C505.8,899.5,511.4,898.8,517.2,898.6z"/></g></g><g></g><g></g><g></g><g></g><g></g><g></g><g></g><g></g><g></g><g></g><g></g><g></g><g></g><g></g><g></g></g>
</svg>