<svg width="50" height="46" viewBox="0 0 50 46" fill="none" xmlns="http://www.w3.org/2000/svg">
<path fill-rule="evenodd" clip-rule="evenodd" d="M14.5775 26.0775L27.0493 20.8944L32.2324 8.26056L37.4155 20.8944L49.8873 26.0775L37.4155 31.4225L32.2324 43.7324L27.0493 31.4225L14.5775 26.0775ZM23.9718 25.954L29.8073 23.4926L32.2324 17.493L34.6575 23.4926L40.493 25.954L34.6575 28.4923L32.2324 34.338L29.8073 28.4923L23.9718 25.954Z" fill="#409458"/>
<path d="M8.12385 8.19178L0 11.5525L8.12385 15.0183L11.5 23L14.8761 15.0183L23 11.5525L14.8761 8.19178L11.5 0L8.12385 8.19178Z" fill="#409458"/>
<path d="M9.36019 36.6145L4.21127 38.7446L9.36019 40.9412L11.5 46L13.6398 40.9412L18.7887 38.7446L13.6398 36.6145L11.5 31.4225L9.36019 36.6145Z" fill="#409458"/>
</svg>
