<svg width="500" height="500" viewBox="0 0 500 500" fill="none" xmlns="http://www.w3.org/2000/svg">
<path d="M276.326 201.219C277.936 205.141 279.542 209.061 281.202 213.112C281.628 212.975 282.206 212.975 282.426 212.699C289.094 204.28 297.751 198.152 306.919 192.971C322.125 184.383 326.355 170.947 324.206 155.103C322.815 144.868 319.476 134.907 317.223 124.78C315.485 116.96 313.976 109.098 310.004 101.987C309.592 101.245 309.534 100.31 309.261 99.2812C311.981 98.3863 313.263 100.06 314.031 101.732C316.925 108.068 319.651 114.479 322.338 120.904C323.928 124.7 325.289 128.594 326.836 132.413C327.283 133.52 328.018 134.512 329.078 136.349C330.06 134.559 330.97 133.531 331.209 132.364C333.716 120.165 336.97 107.919 335.836 95.4309C335.175 88.1775 332.143 81.1328 330.149 74.004C329.503 71.6978 328.651 69.4396 328.114 67.1135C327.949 66.3861 328.514 65.4978 328.744 64.6841C329.538 65.0072 330.647 65.1076 331.068 65.6955C332.979 68.3913 334.708 71.2205 336.488 74.0114C342.971 84.1959 345.175 95.4929 343.877 107.221C342.3 121.519 339.605 135.686 337.842 149.964C336.582 160.194 335.415 170.377 331.527 180.042C331.209 180.837 331.305 182.345 331.828 182.775C332.376 183.231 333.836 183.111 334.616 182.705C341.032 179.381 345.711 174.25 349.121 168.014C349.643 167.053 349.114 165.226 348.551 164.046C347.418 161.69 345.811 159.564 344.648 157.22C344.175 156.271 344.344 155.001 344.22 153.879C344.515 153.741 344.823 153.606 345.12 153.468C347.418 155.673 349.71 157.88 352.259 160.323C352.933 159.244 353.491 158.652 353.715 157.952C357.426 146.303 361.323 134.722 362.631 122.44C363.585 113.467 361.914 105.404 356.099 98.3384C355.658 97.7983 355.477 97.0495 355.174 96.3996L355.79 95.6139C356.989 96.2107 358.327 96.6275 359.36 97.428C369.191 105.086 372.554 115.658 370.936 127.333C369.242 139.612 367.759 152.061 363.026 163.764C362.502 165.062 362.673 166.953 363.205 168.307C365.852 175.075 364.763 180.512 358.555 184.457C352.32 188.42 345.654 191.791 338.942 194.94C328.992 199.61 318.637 203.466 308.819 208.381C298.551 213.52 291.221 221.788 286.557 232.329C284.392 237.209 282.088 242.027 279.826 246.864C278.843 248.969 275.883 249.648 274.388 247.943C272.357 245.628 270.378 243.227 268.711 240.649C267.248 238.383 267.34 236.283 269.445 233.89C274.162 228.525 274.61 221.568 275.203 214.871C275.511 211.371 274.991 207.8 274.862 204.259C274.829 203.408 274.855 202.555 274.855 201.703C275.348 201.537 275.839 201.379 276.326 201.219Z" fill="#616061"/>
<path d="M377.804 155.094C375.57 158.773 372.225 160.849 368.109 161.826C368.104 161.781 368.098 161.756 368.109 161.75C368.925 161.133 369.096 160.228 369.224 159.299C369.309 158.642 369.384 157.977 369.541 157.336C369.921 155.852 370.863 154.748 372.092 153.865C373.134 153.114 374.313 152.616 375.476 152.093C377.107 151.354 378.58 150.388 379.7 148.962C379.817 148.824 379.907 148.66 380.018 148.516C380.213 148.27 380.392 148.29 380.505 148.587C380.695 149.083 380.876 149.58 381.031 150.087C381.69 152.186 382.082 154.328 381.985 156.535C381.917 158.225 381.526 159.826 380.681 161.311C379.933 162.624 378.772 163.405 377.381 163.895C375.657 164.495 373.883 164.577 372.085 164.293C371.086 164.136 370.128 163.848 369.186 163.481C368.653 163.272 368.104 163.123 367.519 163.14C366.611 163.166 365.903 163.679 365.615 164.527C365.521 164.792 365.478 165.072 365.393 165.337C365.354 165.443 365.274 165.572 365.178 165.608C365.119 165.629 364.97 165.519 364.917 165.435C364.706 165.092 364.676 164.713 364.863 164.359C365.521 163.137 366.525 162.519 367.942 162.366C370.876 162.051 373.57 161.102 375.65 158.881C376.561 157.907 377.239 156.782 377.735 155.547C377.789 155.418 377.833 155.288 377.884 155.156C377.855 155.135 377.832 155.116 377.804 155.094Z" fill="#00652E"/>
<path d="M302.175 118.327C304.701 123.804 308.988 127.239 314.501 129.28C314.508 129.216 314.524 129.18 314.513 129.171C313.482 128.182 313.379 126.893 313.343 125.585C313.317 124.654 313.322 123.723 313.189 122.809C312.889 120.681 311.757 118.997 310.209 117.568C308.878 116.35 307.339 115.46 305.818 114.534C303.681 113.244 301.812 111.658 300.472 109.499C300.339 109.279 300.242 109.039 300.108 108.824C299.874 108.448 299.625 108.446 299.425 108.834C299.095 109.495 298.772 110.161 298.482 110.831C297.27 113.64 296.416 116.547 296.221 119.634C296.075 121.989 296.366 124.281 297.303 126.478C298.138 128.419 299.623 129.706 301.458 130.606C303.737 131.732 306.158 132.143 308.674 132.048C310.067 131.99 311.429 131.748 312.769 131.397C313.536 131.203 314.314 131.086 315.117 131.201C316.358 131.391 317.259 132.218 317.526 133.445C317.608 133.827 317.63 134.226 317.712 134.606C317.744 134.758 317.842 134.95 317.964 135.016C318.038 135.059 318.262 134.927 318.348 134.819C318.692 134.378 318.783 133.86 318.575 133.336C317.859 131.529 316.572 130.507 314.65 130.058C310.658 129.137 307.103 127.371 304.574 123.94C303.471 122.432 302.7 120.762 302.204 118.966C302.148 118.777 302.103 118.588 302.052 118.4C302.097 118.376 302.137 118.349 302.175 118.327Z" fill="#00652E"/>
<path d="M352.098 57.9787C350.744 63.1867 347.456 66.8803 342.825 69.5472C342.81 69.4871 342.788 69.4587 342.794 69.448C343.561 68.415 343.433 67.2714 343.243 66.1152C343.109 65.2932 342.95 64.4712 342.914 63.6467C342.82 61.7291 343.555 60.0757 344.714 58.5739C345.704 57.2951 346.948 56.2747 348.163 55.2227C349.87 53.7538 351.293 52.0637 352.133 49.9528C352.216 49.7405 352.262 49.5156 352.347 49.3039C352.492 48.9362 352.722 48.8977 352.966 49.2129C353.379 49.7367 353.779 50.2662 354.16 50.8133C355.735 53.0885 356.993 55.5121 357.696 58.1922C358.234 60.2418 358.357 62.2984 357.882 64.3796C357.461 66.2207 356.332 67.5778 354.829 68.6626C352.964 70.0078 350.847 70.7501 348.561 71.0578C347.291 71.2303 346.02 71.229 344.745 71.1318C344.022 71.0768 343.299 71.0951 342.599 71.3251C341.51 71.6865 340.839 72.5546 340.8 73.6786C340.789 74.0286 340.843 74.3761 340.834 74.7249C340.83 74.8651 340.775 75.0458 340.674 75.1299C340.614 75.1766 340.392 75.0976 340.294 75.0136C339.913 74.6806 339.734 74.2384 339.833 73.7468C340.178 72.0447 341.164 70.9447 342.825 70.2478C346.268 68.8098 349.175 66.6996 350.881 63.291C351.628 61.7948 352.035 60.2014 352.183 58.5442C352.198 58.3717 352.206 58.1979 352.218 58.0242C352.175 58.0103 352.136 57.992 352.098 57.9787Z" fill="#00652E"/>
<path d="M147.347 96.3826C146.976 97.1114 146.72 97.9355 146.216 98.5559C140.762 105.233 138.879 112.898 139.689 121.349C140.935 134.318 145.052 146.576 149.104 158.845C149.202 159.144 149.509 159.372 150.23 160.267C152.014 158.507 153.671 156.766 155.456 155.169C156.118 154.575 157.08 154.319 157.908 153.909C157.967 154.864 158.39 155.991 158.023 156.737C156.83 159.19 155.49 161.603 153.926 163.833C152.726 165.547 152.448 166.883 153.642 168.775C157.249 174.477 161.502 179.489 167.65 182.589C168.476 183.004 169.813 183.296 170.464 182.906C171.02 182.574 171.352 180.99 171.049 180.268C166.702 169.996 165.89 159.019 164.332 148.174C162.807 137.558 160.807 127.009 159.288 116.39C156.941 99.9724 158.397 84.1855 168.209 70.0592C169.68 67.9345 171.454 66.0208 173.089 64.0046C173.559 64.2288 174.029 64.4457 174.499 64.6648C174.296 66.2473 174.333 67.9006 173.851 69.3916C172.145 74.7203 170.269 79.9988 168.434 85.2884C165.69 93.1867 165.789 101.221 167.174 109.342C168.383 116.427 169.415 123.551 170.719 130.624C171.043 132.38 172.116 134.003 173.263 136.658C174.538 134.373 175.391 133.187 175.909 131.872C178.962 124.103 181.862 116.281 184.967 108.535C185.98 106.003 187.288 103.548 188.778 101.263C189.512 100.129 190.965 99.4597 192.096 98.5803C192.438 98.8407 192.777 99.0997 193.119 99.363C192.698 100.682 192.317 102.019 191.852 103.327C190.257 107.835 188.287 112.252 187.076 116.861C184.032 128.452 180.893 140.051 178.607 151.805C176.565 162.331 177.245 172.897 183.459 182.195C185.5 185.249 188.308 188.095 191.379 190.118C201.794 196.977 212.559 203.327 220.964 213.641C222.823 209.265 224.514 205.286 226.203 201.311C226.614 201.45 227.022 201.584 227.432 201.724C227.432 204.045 227.255 206.378 227.467 208.682C228.039 214.907 228.481 221.167 229.602 227.301C230.057 229.816 232.271 231.974 233.414 234.418C234.07 235.828 234.99 237.94 234.41 238.964C232.516 242.294 230.167 245.431 227.628 248.323C226.251 249.894 223.394 248.525 222.394 246.331C210.877 221.018 208.998 214.187 178.375 200.736C172.611 198.203 166.424 196.587 160.765 193.86C154.609 190.895 148.611 187.465 142.976 183.614C137.662 179.981 136.803 174.735 139.081 168.7C139.699 167.061 139.824 164.812 139.215 163.204C134.705 151.321 132.966 138.812 131.476 126.385C130.119 115.109 133.493 104.831 143.057 97.4825C144.118 96.6666 145.469 96.2247 146.692 95.6064C146.906 95.8661 147.126 96.1236 147.347 96.3826Z" fill="#616061"/>
<path d="M198.332 119.911C196.772 125.993 192.983 130.303 187.643 133.417C187.621 133.352 187.598 133.317 187.606 133.301C188.492 132.096 188.342 130.76 188.125 129.408C187.969 128.452 187.784 127.494 187.739 126.533C187.638 124.29 188.482 122.36 189.821 120.605C190.96 119.112 192.396 117.922 193.797 116.693C195.766 114.976 197.405 113.005 198.374 110.54C198.469 110.293 198.524 110.029 198.623 109.782C198.791 109.353 199.052 109.311 199.335 109.676C199.811 110.288 200.275 110.908 200.712 111.543C202.53 114.203 203.984 117.031 204.793 120.162C205.411 122.555 205.554 124.956 205.006 127.383C204.522 129.533 203.226 131.119 201.485 132.386C199.333 133.959 196.893 134.823 194.258 135.183C192.792 135.383 191.328 135.383 189.859 135.27C189.023 135.208 188.189 135.228 187.384 135.5C186.125 135.92 185.351 136.934 185.307 138.243C185.296 138.651 185.353 139.057 185.343 139.467C185.339 139.632 185.279 139.841 185.164 139.936C185.09 139.99 184.834 139.898 184.723 139.804C184.281 139.414 184.078 138.897 184.19 138.322C184.589 136.337 185.725 135.05 187.643 134.238C191.613 132.558 194.966 130.095 196.931 126.114C197.795 124.365 198.263 122.507 198.432 120.571C198.449 120.368 198.457 120.168 198.472 119.965C198.426 119.948 198.38 119.928 198.332 119.911Z" fill="#00652E"/>
<path d="M148.008 60.1381C149.565 66.2193 153.355 70.5314 158.7 73.6432C158.718 73.5746 158.744 73.5428 158.736 73.5296C157.848 72.3241 158 70.9888 158.219 69.638C158.373 68.6782 158.556 67.7191 158.602 66.7578C158.706 64.5181 157.861 62.5867 156.519 60.833C155.379 59.3399 153.947 58.1499 152.545 56.9208C150.577 55.2041 148.934 53.2306 147.965 50.7688C147.873 50.5187 147.815 50.2575 147.715 50.0082C147.547 49.5795 147.289 49.5338 147.008 49.9019C146.53 50.5143 146.065 51.1347 145.63 51.7706C143.812 54.428 142.359 57.2579 141.549 60.3882C140.932 62.7807 140.79 65.1842 141.337 67.6085C141.82 69.7597 143.119 71.3473 144.853 72.6155C147.01 74.1854 149.45 75.0478 152.084 75.4101C153.551 75.6115 155.013 75.6093 156.487 75.4964C157.321 75.4352 158.153 75.4536 158.962 75.7229C160.213 76.1463 160.989 77.1607 161.036 78.4687C161.047 78.876 160.988 79.2839 160.999 79.6941C161.001 79.8527 161.065 80.0689 161.181 80.1619C161.251 80.2179 161.508 80.1301 161.619 80.0298C162.057 79.6403 162.265 79.1231 162.149 78.5492C161.753 76.5668 160.616 75.278 158.7 74.4635C154.73 72.7845 151.373 70.3211 149.41 66.3432C148.55 64.5918 148.077 62.7335 147.912 60.7969C147.894 60.5962 147.885 60.3956 147.87 60.1905C147.92 60.1742 147.96 60.1565 148.008 60.1381Z" fill="#00652E"/>
<path d="M127.114 156.692C131.032 158.368 133.523 161.34 135.051 165.218C135.001 165.227 134.975 165.237 134.969 165.23C134.253 164.517 133.341 164.473 132.412 164.477C131.754 164.478 131.091 164.499 130.437 164.429C128.927 164.261 127.718 163.494 126.683 162.422C125.8 161.506 125.152 160.426 124.477 159.366C123.531 157.877 122.383 156.579 120.832 155.677C120.676 155.587 120.504 155.523 120.349 155.43C120.079 155.274 120.074 155.097 120.35 154.946C120.811 154.695 121.277 154.45 121.752 154.228C123.726 153.303 125.78 152.635 127.965 152.427C129.636 152.27 131.259 152.427 132.832 153.048C134.22 153.597 135.148 154.624 135.819 155.913C136.644 157.508 136.966 159.222 136.931 161.01C136.913 162.006 136.757 162.976 136.524 163.945C136.394 164.489 136.319 165.046 136.419 165.611C136.569 166.49 137.166 167.114 138.041 167.279C138.311 167.331 138.593 167.334 138.865 167.384C138.973 167.403 139.109 167.47 139.159 167.555C139.189 167.608 139.102 167.77 139.027 167.833C138.717 168.084 138.348 168.164 137.978 168.029C136.687 167.557 135.943 166.663 135.599 165.307C134.89 162.491 133.594 160.002 131.127 158.277C130.046 157.522 128.849 157.012 127.567 156.697C127.434 156.664 127.299 156.636 127.165 156.605C127.148 156.634 127.13 156.661 127.114 156.692Z" fill="#00652E"/>
<path d="M84.16 408.72C89.696 408.72 92.224 405.968 92.224 402.8C92.224 394.672 78.24 398.64 78.24 391.92C78.24 389.456 80.192 387.44 84.544 387.44C86.56 387.44 88.832 388.048 90.688 389.328L91.296 388.016C89.568 386.768 87.008 386 84.544 386C79.04 386 76.608 388.784 76.608 391.952C76.608 400.208 90.592 396.176 90.592 402.896C90.592 405.328 88.608 407.28 84.128 407.28C81.12 407.28 78.272 406.064 76.736 404.464L76 405.68C77.632 407.472 80.832 408.72 84.16 408.72Z" fill="#616061"/>
<path d="M126.924 407.088V397.904H138.86V396.464H126.924V387.632H140.268V386.16H125.292V408.56H140.748V407.088H126.924Z" fill="#616061"/>
<path d="M191.626 408.56L186.026 400.72C189.354 399.728 191.274 397.264 191.274 393.712C191.274 388.976 187.882 386.16 182.25 386.16H174.218V408.56H175.85V401.232H182.25C183.018 401.232 183.722 401.168 184.426 401.072L189.77 408.56H191.626ZM175.85 399.792V387.632H182.25C187.05 387.632 189.61 389.84 189.61 393.712C189.61 397.552 187.05 399.792 182.25 399.792H175.85Z" fill="#616061"/>
<path d="M240.962 386.16L231.906 406.448L222.85 386.16H221.057L231.042 408.56H232.673L242.658 386.16H240.962Z" fill="#616061"/>
<path d="M273.79 408.56H275.422V386.16H273.79V408.56Z" fill="#616061"/>
<path d="M320.219 408.72C323.387 408.72 326.235 407.664 328.187 405.584L327.163 404.528C325.243 406.416 322.907 407.216 320.283 407.216C314.555 407.216 310.235 402.992 310.235 397.36C310.235 391.728 314.555 387.504 320.283 387.504C322.907 387.504 325.243 388.272 327.163 390.16L328.187 389.104C326.235 387.024 323.387 386 320.219 386C313.563 386 308.603 390.832 308.603 397.36C308.603 403.888 313.563 408.72 320.219 408.72Z" fill="#616061"/>
<path d="M362.805 407.088V397.904H374.741V396.464H362.805V387.632H376.149V386.16H361.173V408.56H376.629V407.088H362.805Z" fill="#616061"/>
<path d="M415.988 408.72C421.524 408.72 424.052 405.968 424.052 402.8C424.052 394.672 410.068 398.64 410.068 391.92C410.068 389.456 412.02 387.44 416.372 387.44C418.388 387.44 420.66 388.048 422.516 389.328L423.124 388.016C421.396 386.768 418.836 386 416.372 386C410.868 386 408.436 388.784 408.436 391.952C408.436 400.208 422.42 396.176 422.42 402.896C422.42 405.328 420.436 407.28 415.956 407.28C412.948 407.28 410.1 406.064 408.564 404.464L407.828 405.68C409.46 407.472 412.66 408.72 415.988 408.72Z" fill="#616061"/>
<path d="M93.2403 424.828L89.3703 436.186L85.4463 424.828H84.5643L80.6223 436.168L76.7883 424.828H75.8163L80.1003 437.428H81.0723L84.9963 426.124L88.9023 437.428H89.8743L94.1403 424.828H93.2403Z" fill="#00652E"/>
<path d="M103.914 432.694C103.914 429.904 102.006 427.96 99.4317 427.96C96.8577 427.96 94.9317 429.94 94.9317 432.73C94.9317 435.52 96.9297 437.5 99.7737 437.5C101.196 437.5 102.492 436.978 103.32 435.97L102.798 435.376C102.078 436.258 100.98 436.69 99.7917 436.69C97.5417 436.69 95.9037 435.178 95.8137 432.946H103.896C103.896 432.856 103.914 432.766 103.914 432.694ZM99.4317 428.752C101.43 428.752 102.906 430.21 103.032 432.244H95.8317C95.9757 430.192 97.4337 428.752 99.4317 428.752Z" fill="#00652E"/>
<path d="M111.969 437.428H116.955C120.951 437.428 123.651 434.8 123.651 431.128C123.651 427.456 120.951 424.828 116.955 424.828H111.969V437.428ZM112.887 436.6V425.656H116.883C120.447 425.656 122.733 427.924 122.733 431.128C122.733 434.332 120.447 436.6 116.883 436.6H112.887Z" fill="#00652E"/>
<path d="M130.404 437.5C133.104 437.5 135.102 435.52 135.102 432.73C135.102 429.94 133.104 427.96 130.404 427.96C127.704 427.96 125.706 429.94 125.706 432.73C125.706 435.52 127.704 437.5 130.404 437.5ZM130.404 436.69C128.244 436.69 126.624 435.088 126.624 432.73C126.624 430.372 128.244 428.77 130.404 428.77C132.564 428.77 134.184 430.372 134.184 432.73C134.184 435.088 132.564 436.69 130.404 436.69Z" fill="#00652E"/>
<path d="M142.664 427.96C140.882 427.96 139.568 428.752 138.938 430.066V428.032H138.074V437.428H138.974V432.424C138.974 430.192 140.324 428.77 142.538 428.77C144.446 428.77 145.58 429.886 145.58 432.01V437.428H146.48V431.938C146.48 429.31 144.95 427.96 142.664 427.96Z" fill="#00652E"/>
<path d="M150.099 424C149.667 424 149.343 424.324 149.343 424.756C149.343 425.134 149.577 425.404 149.937 425.494L149.343 428.032H149.991L150.693 425.584C150.801 425.206 150.855 425.026 150.855 424.756C150.855 424.36 150.549 424 150.099 424Z" fill="#00652E"/>
<path d="M158.292 436.204C157.914 436.546 157.392 436.726 156.834 436.726C155.682 436.726 155.088 436.06 155.088 434.854V428.806H158.076V428.032H155.088V425.98H154.188V428.032H152.46V428.806H154.188V434.944C154.188 436.528 155.088 437.5 156.744 437.5C157.446 437.5 158.202 437.284 158.67 436.834L158.292 436.204Z" fill="#00652E"/>
<path d="M171.779 437.518C173.561 437.518 175.163 436.924 176.261 435.754L175.685 435.16C174.605 436.222 173.291 436.672 171.815 436.672C168.593 436.672 166.163 434.296 166.163 431.128C166.163 427.96 168.593 425.584 171.815 425.584C173.291 425.584 174.605 426.016 175.685 427.078L176.261 426.484C175.163 425.314 173.561 424.738 171.779 424.738C168.035 424.738 165.245 427.456 165.245 431.128C165.245 434.8 168.035 437.518 171.779 437.518Z" fill="#00652E"/>
<path d="M186.22 428.032V433.036C186.22 435.268 184.906 436.69 182.782 436.69C180.82 436.69 179.686 435.574 179.686 433.45V428.032H178.786V433.522C178.786 436.15 180.316 437.5 182.71 437.5C184.366 437.5 185.644 436.726 186.256 435.412V437.428H187.12V428.032H186.22Z" fill="#00652E"/>
<path d="M195.399 436.204C195.021 436.546 194.499 436.726 193.941 436.726C192.789 436.726 192.195 436.06 192.195 434.854V428.806H195.183V428.032H192.195V425.98H191.295V428.032H189.567V428.806H191.295V434.944C191.295 436.528 192.195 437.5 193.851 437.5C194.553 437.5 195.309 437.284 195.777 436.834L195.399 436.204Z" fill="#00652E"/>
<path d="M208.886 437.518C210.668 437.518 212.27 436.924 213.368 435.754L212.792 435.16C211.712 436.222 210.398 436.672 208.922 436.672C205.7 436.672 203.27 434.296 203.27 431.128C203.27 427.96 205.7 425.584 208.922 425.584C210.398 425.584 211.712 426.016 212.792 427.078L213.368 426.484C212.27 425.314 210.668 424.738 208.886 424.738C205.142 424.738 202.352 427.456 202.352 431.128C202.352 434.8 205.142 437.518 208.886 437.518Z" fill="#00652E"/>
<path d="M219.567 437.5C222.267 437.5 224.265 435.52 224.265 432.73C224.265 429.94 222.267 427.96 219.567 427.96C216.867 427.96 214.869 429.94 214.869 432.73C214.869 435.52 216.867 437.5 219.567 437.5ZM219.567 436.69C217.407 436.69 215.787 435.088 215.787 432.73C215.787 430.372 217.407 428.77 219.567 428.77C221.727 428.77 223.347 430.372 223.347 432.73C223.347 435.088 221.727 436.69 219.567 436.69Z" fill="#00652E"/>
<path d="M228.101 430.084V428.032H227.237V437.428H228.137V432.532C228.137 430.21 229.379 428.824 231.467 428.824C231.539 428.824 231.611 428.842 231.683 428.842V427.96C229.919 427.96 228.677 428.716 228.101 430.084Z" fill="#00652E"/>
<path d="M238.933 427.96C237.151 427.96 235.837 428.752 235.207 430.066V428.032H234.343V437.428H235.243V432.424C235.243 430.192 236.593 428.77 238.807 428.77C240.715 428.77 241.849 429.886 241.849 432.01V437.428H242.749V431.938C242.749 429.31 241.219 427.96 238.933 427.96Z" fill="#00652E"/>
<path d="M254.608 432.694C254.608 429.904 252.7 427.96 250.126 427.96C247.552 427.96 245.626 429.94 245.626 432.73C245.626 435.52 247.624 437.5 250.468 437.5C251.89 437.5 253.186 436.978 254.014 435.97L253.492 435.376C252.772 436.258 251.674 436.69 250.486 436.69C248.236 436.69 246.598 435.178 246.508 432.946H254.59C254.59 432.856 254.608 432.766 254.608 432.694ZM250.126 428.752C252.124 428.752 253.6 430.21 253.726 432.244H246.526C246.67 430.192 248.128 428.752 250.126 428.752Z" fill="#00652E"/>
<path d="M258.436 430.084V428.032H257.572V437.428H258.472V432.532C258.472 430.21 259.714 428.824 261.802 428.824C261.874 428.824 261.946 428.842 262.018 428.842V427.96C260.254 427.96 259.012 428.716 258.436 430.084Z" fill="#00652E"/>
<path d="M267.142 437.5C269.536 437.5 270.85 436.456 270.85 434.926C270.85 431.344 264.622 433.342 264.622 430.516C264.622 429.508 265.432 428.752 267.268 428.752C268.276 428.752 269.302 429.022 270.094 429.598L270.508 428.878C269.77 428.32 268.474 427.96 267.286 427.96C264.91 427.96 263.722 429.112 263.722 430.534C263.722 434.224 269.95 432.208 269.95 434.944C269.95 436.006 269.158 436.708 267.178 436.708C265.792 436.708 264.514 436.186 263.794 435.574L263.38 436.294C264.118 436.978 265.594 437.5 267.142 437.5Z" fill="#00652E"/>
<path d="M294.581 424.828L290.711 436.186L286.787 424.828H285.905L281.963 436.168L278.129 424.828H277.157L281.441 437.428H282.413L286.337 426.124L290.243 437.428H291.215L295.481 424.828H294.581Z" fill="#00652E"/>
<path d="M305.254 432.694C305.254 429.904 303.346 427.96 300.772 427.96C298.198 427.96 296.272 429.94 296.272 432.73C296.272 435.52 298.27 437.5 301.114 437.5C302.536 437.5 303.832 436.978 304.66 435.97L304.138 435.376C303.418 436.258 302.32 436.69 301.132 436.69C298.882 436.69 297.244 435.178 297.154 432.946H305.236C305.236 432.856 305.254 432.766 305.254 432.694ZM300.772 428.752C302.77 428.752 304.246 430.21 304.372 432.244H297.172C297.316 430.192 298.774 428.752 300.772 428.752Z" fill="#00652E"/>
<path d="M318.638 437.518C320.42 437.518 322.022 436.924 323.12 435.754L322.544 435.16C321.464 436.222 320.15 436.672 318.674 436.672C315.452 436.672 313.022 434.296 313.022 431.128C313.022 427.96 315.452 425.584 318.674 425.584C320.15 425.584 321.464 426.016 322.544 427.078L323.12 426.484C322.022 425.314 320.42 424.738 318.638 424.738C314.894 424.738 312.104 427.456 312.104 431.128C312.104 434.8 314.894 437.518 318.638 437.518Z" fill="#00652E"/>
<path d="M326.086 437.428H326.986V424.072H326.086V437.428Z" fill="#00652E"/>
<path d="M338.916 432.694C338.916 429.904 337.008 427.96 334.434 427.96C331.86 427.96 329.934 429.94 329.934 432.73C329.934 435.52 331.932 437.5 334.776 437.5C336.198 437.5 337.494 436.978 338.322 435.97L337.8 435.376C337.08 436.258 335.982 436.69 334.794 436.69C332.544 436.69 330.906 435.178 330.816 432.946H338.898C338.898 432.856 338.916 432.766 338.916 432.694ZM334.434 428.752C336.432 428.752 337.908 430.21 338.034 432.244H330.834C330.978 430.192 332.436 428.752 334.434 428.752Z" fill="#00652E"/>
<path d="M344.784 427.96C343.326 427.96 341.958 428.464 341.022 429.292L341.472 429.94C342.246 429.238 343.416 428.752 344.712 428.752C346.548 428.752 347.502 429.688 347.502 431.434V432.19H344.28C341.67 432.19 340.77 433.396 340.77 434.818C340.77 436.42 342.048 437.5 344.154 437.5C345.792 437.5 346.944 436.834 347.538 435.754V437.428H348.402V431.47C348.402 429.148 347.106 427.96 344.784 427.96ZM344.28 436.762C342.624 436.762 341.67 436.006 341.67 434.782C341.67 433.702 342.354 432.892 344.298 432.892H347.502V434.656C346.962 436.006 345.864 436.762 344.28 436.762Z" fill="#00652E"/>
<path d="M356.88 427.96C355.098 427.96 353.784 428.752 353.154 430.066V428.032H352.29V437.428H353.19V432.424C353.19 430.192 354.54 428.77 356.754 428.77C358.662 428.77 359.796 429.886 359.796 432.01V437.428H360.696V431.938C360.696 429.31 359.166 427.96 356.88 427.96Z" fill="#00652E"/>
<path d="M372.085 437.428H373.003V425.656H377.539V424.828H367.549V425.656H372.085V437.428Z" fill="#00652E"/>
<path d="M384.297 427.96C382.551 427.96 381.255 428.716 380.607 429.994V424.072H379.707V437.428H380.607V432.424C380.607 430.192 381.957 428.77 384.171 428.77C386.079 428.77 387.213 429.886 387.213 432.01V437.428H388.113V431.938C388.113 429.31 386.583 427.96 384.297 427.96Z" fill="#00652E"/>
<path d="M399.972 432.694C399.972 429.904 398.064 427.96 395.49 427.96C392.916 427.96 390.99 429.94 390.99 432.73C390.99 435.52 392.988 437.5 395.832 437.5C397.254 437.5 398.55 436.978 399.378 435.97L398.856 435.376C398.136 436.258 397.038 436.69 395.85 436.69C393.6 436.69 391.962 435.178 391.872 432.946H399.954C399.954 432.856 399.972 432.766 399.972 432.694ZM395.49 428.752C397.488 428.752 398.964 430.21 399.09 432.244H391.89C392.034 430.192 393.492 428.752 395.49 428.752Z" fill="#00652E"/>
<path d="M414.636 427.96C412.818 427.96 411.45 428.86 410.838 430.228C410.334 428.734 409.092 427.96 407.4 427.96C405.69 427.96 404.412 428.734 403.8 430.048V428.032H402.936V437.428H403.836V432.424C403.836 430.192 405.15 428.77 407.274 428.77C409.11 428.77 410.208 429.886 410.208 432.01V437.428H411.108V432.424C411.108 430.192 412.422 428.77 414.546 428.77C416.382 428.77 417.48 429.886 417.48 432.01V437.428H418.38V431.938C418.38 429.31 416.904 427.96 414.636 427.96Z" fill="#00652E"/>
<path d="M422.295 433.81H422.979L423.159 424.828H422.115L422.295 433.81ZM422.637 437.5C423.069 437.5 423.393 437.158 423.393 436.762C423.393 436.348 423.069 436.024 422.637 436.024C422.223 436.024 421.899 436.348 421.899 436.762C421.899 437.158 422.223 437.5 422.637 437.5Z" fill="#00652E"/>
<path d="M184.904 265.754C184.113 266.545 183.733 267.494 183.733 268.632V293.243C183.733 295.552 182.879 297.545 181.171 299.19C179.495 300.835 177.502 301.657 175.193 301.657C172.757 301.657 170.701 300.771 169.024 299C168.233 298.177 167.284 297.766 166.177 297.735C165.07 297.703 164.09 298.051 163.267 298.842C162.476 299.601 162.033 300.55 162.002 301.689C161.97 302.796 162.35 303.776 163.109 304.599C166.399 308.047 170.416 309.787 175.193 309.787C179.748 309.787 183.639 308.173 186.897 304.947C190.155 301.752 191.8 297.861 191.863 293.306V268.632C191.863 267.494 191.452 266.545 190.661 265.754C189.87 264.963 188.89 264.552 187.782 264.552C186.675 264.552 185.695 264.963 184.904 265.754Z" fill="#616061"/>
<path d="M218.92 293.464L225.658 278.502L232.396 293.464H218.92ZM215.251 301.594H235.97L236.065 301.562L238.501 307.035C238.975 308.047 239.734 308.743 240.778 309.154C241.822 309.565 242.866 309.534 243.878 309.059C244.922 308.585 245.618 307.857 246.029 306.813C246.441 305.769 246.409 304.725 245.934 303.682L229.359 266.924C228.695 265.343 227.461 264.552 225.658 264.552C223.855 264.552 222.621 265.343 221.957 266.924L205.381 303.682C204.907 304.725 204.875 305.769 205.286 306.813C205.698 307.857 206.394 308.585 207.406 309.059C208.45 309.534 209.494 309.565 210.537 309.154C211.581 308.743 212.309 308.047 212.783 307.035L215.251 301.594Z" fill="#616061"/>
<path d="M290.664 265.786C289.873 266.576 289.494 267.525 289.494 268.664V290.649C289.462 293.686 288.355 296.279 286.172 298.462C283.99 300.613 281.364 301.689 278.296 301.689C275.228 301.689 272.634 300.613 270.451 298.43C268.268 296.248 267.161 293.654 267.13 290.586V268.664C267.13 267.525 266.75 266.576 265.959 265.786C265.168 264.995 264.188 264.583 263.081 264.583C261.942 264.583 260.993 264.995 260.202 265.786C259.411 266.576 259 267.525 259 268.664V290.712C259.032 295.995 260.961 300.487 264.726 304.219C268.49 307.952 273.013 309.818 278.296 309.818C283.579 309.818 288.102 307.952 291.866 304.219C295.631 300.487 297.56 295.995 297.624 290.712V268.664C297.624 267.525 297.212 266.576 296.421 265.786C295.631 264.995 294.65 264.583 293.543 264.583C292.436 264.583 291.455 264.995 290.664 265.786Z" fill="#616061"/>
<path d="M324.592 282.962H324.56C322.567 282.804 320.954 282.203 319.784 281.096C318.582 279.989 318.044 278.66 318.171 277.078C318.265 275.497 318.993 274.231 320.322 273.314C321.65 272.397 323.327 272.017 325.319 272.175C326.996 272.27 328.546 273.029 330.001 274.39C330.824 275.149 331.804 275.497 332.943 275.465C334.05 275.434 334.999 275.022 335.758 274.2C336.549 273.377 336.897 272.397 336.865 271.29C336.834 270.151 336.391 269.202 335.568 268.443C334.272 267.209 332.975 266.292 331.709 265.627C329.969 264.71 328.04 264.204 325.889 264.046C321.65 263.761 318.012 264.805 315.007 267.177C311.971 269.55 310.326 272.65 310.041 276.509C309.756 280.337 310.958 283.658 313.615 286.442C316.273 289.225 319.721 290.775 323.991 291.06C325.762 291.187 327.312 291.693 328.641 292.578C329.242 292.99 329.685 293.464 329.97 294.002C330.349 294.729 330.507 295.71 330.412 296.944C330.317 298.525 329.59 299.759 328.261 300.676C326.933 301.594 325.256 302.005 323.263 301.847C321.365 301.72 319.847 301.056 318.677 299.886C317.886 299.095 316.937 298.684 315.798 298.684C314.691 298.684 313.71 299.063 312.919 299.854C312.129 300.645 311.749 301.625 311.717 302.733C311.717 303.84 312.129 304.82 312.919 305.611C315.513 308.237 318.772 309.66 322.694 309.945C326.933 310.261 330.571 309.217 333.576 306.845C336.612 304.472 338.257 301.341 338.542 297.513C338.89 292.325 337.087 288.403 333.101 285.777C330.602 284.101 327.755 283.184 324.592 282.962Z" fill="#616061"/>
<path d="M84.1139 349.468V333.682H90.4598C92.6067 333.714 94.4379 334.472 95.9533 336.019C97.5003 337.566 98.2581 339.428 98.2581 341.575C98.2581 343.722 97.5003 345.585 95.9533 347.132C94.4379 348.679 92.6067 349.437 90.4598 349.468H84.1139ZM80.6726 325.568L80.4832 325.6L80.2622 325.568H80.0728C78.9362 325.568 77.989 325.979 77.1997 326.768C76.4104 327.557 76 328.505 76 329.641V366.296C76 367.432 76.4104 368.38 77.1997 369.169C77.989 369.958 78.9362 370.369 80.0728 370.369C81.1778 370.369 82.1249 369.958 82.9142 369.169C83.7035 368.38 84.1139 367.432 84.1139 366.296V357.582H90.5861C94.9115 357.551 98.6369 355.94 101.731 352.815C104.825 349.689 106.372 345.932 106.372 341.575C106.372 337.187 104.825 333.43 101.699 330.304C98.6054 327.179 94.8799 325.6 90.4914 325.568H80.6726Z" fill="#00652E"/>
<path d="M126.114 347.258V333.682H134.859C136.69 333.714 138.269 334.377 139.595 335.703C140.889 337.029 141.553 338.607 141.553 340.47C141.553 342.333 140.889 343.912 139.595 345.238C138.269 346.564 136.69 347.227 134.828 347.258H126.114ZM145.341 329.988C142.437 327.052 138.964 325.6 134.891 325.568H122.673L122.483 325.6L122.262 325.568H122.073C120.936 325.568 119.989 325.947 119.2 326.737C118.41 327.526 118 328.505 118 329.61V366.296C118 367.432 118.41 368.38 119.2 369.169C119.989 369.958 120.936 370.369 122.073 370.369C123.178 370.369 124.125 369.958 124.914 369.169C125.704 368.38 126.114 367.432 126.114 366.296V355.372H131.45L141.553 368.758C142.247 369.642 143.131 370.179 144.236 370.337C145.341 370.495 146.351 370.211 147.267 369.548C148.151 368.885 148.656 367.969 148.814 366.864C148.972 365.759 148.719 364.749 148.025 363.865L140.7 354.141C143.384 352.973 145.531 351.173 147.172 348.742C148.846 346.248 149.666 343.47 149.666 340.47C149.666 336.397 148.214 332.893 145.341 329.988Z" fill="#00652E"/>
<path d="M173.471 358.529C170.566 355.593 169.114 352.089 169.114 347.984C169.114 343.88 170.566 340.375 173.471 337.471C176.407 334.566 179.911 333.114 184.016 333.114C188.12 333.114 191.625 334.566 194.529 337.471C197.434 340.375 198.886 343.88 198.886 347.984C198.886 352.089 197.434 355.593 194.529 358.529C191.625 361.434 188.12 362.886 184.016 362.886C179.911 362.886 176.407 361.434 173.471 358.529ZM167.756 331.725C163.242 336.24 161 341.638 161 347.984C161 354.33 163.242 359.76 167.756 364.244C172.24 368.758 177.67 371 184.016 371C190.362 371 195.76 368.758 200.275 364.244C204.758 359.76 207 354.33 207 347.984C207 341.638 204.758 336.24 200.275 331.725C195.76 327.242 190.362 325 184.016 325C177.67 325 172.24 327.242 167.756 331.725Z" fill="#00652E"/>
<path d="M226.114 349.468V333.682H232.46C234.607 333.714 236.438 334.472 237.953 336.019C239.5 337.566 240.258 339.428 240.258 341.575C240.258 343.722 239.5 345.585 237.953 347.132C236.438 348.679 234.607 349.437 232.46 349.468H226.114ZM222.673 325.568L222.483 325.6L222.262 325.568H222.073C220.936 325.568 219.989 325.979 219.2 326.768C218.41 327.557 218 328.505 218 329.641V366.296C218 367.432 218.41 368.38 219.2 369.169C219.989 369.958 220.936 370.369 222.073 370.369C223.178 370.369 224.125 369.958 224.914 369.169C225.704 368.38 226.114 367.432 226.114 366.296V357.582H232.586C236.911 357.551 240.637 355.94 243.731 352.815C246.825 349.689 248.372 345.932 248.372 341.575C248.372 337.187 246.825 333.43 243.699 330.304C240.605 327.179 236.88 325.6 232.491 325.568H222.673Z" fill="#00652E"/>
<path d="M285.321 333.682C286.457 333.682 287.404 333.272 288.194 332.483C288.983 331.693 289.393 330.746 289.393 329.641C289.393 328.505 288.983 327.557 288.194 326.768C287.404 325.979 286.457 325.568 285.321 325.568H264.073C262.936 325.568 261.989 325.979 261.2 326.768C260.41 327.557 260 328.505 260 329.641V366.296C260 367.432 260.41 368.38 261.2 369.169C261.989 369.958 262.936 370.369 264.073 370.369H285.321C286.457 370.369 287.404 369.958 288.194 369.169C288.983 368.38 289.393 367.432 289.393 366.296C289.393 365.191 288.983 364.212 288.194 363.423C287.404 362.634 286.457 362.255 285.321 362.255H268.114V351.931H281.185C282.321 351.931 283.268 351.52 284.058 350.731C284.847 349.942 285.257 348.995 285.257 347.858C285.257 346.753 284.847 345.806 284.058 345.017C283.268 344.227 282.321 343.817 281.185 343.817H268.114V333.682H285.321Z" fill="#00652E"/>
<path d="M309.114 347.258V333.682H317.859C319.69 333.714 321.269 334.377 322.595 335.703C323.89 337.029 324.552 338.607 324.552 340.47C324.552 342.333 323.89 343.912 322.595 345.238C321.269 346.564 319.69 347.227 317.828 347.258H309.114ZM328.341 329.988C325.437 327.052 321.964 325.6 317.891 325.568H305.673L305.483 325.6L305.262 325.568H305.073C303.936 325.568 302.989 325.947 302.2 326.737C301.41 327.526 301 328.505 301 329.61V366.296C301 367.432 301.41 368.38 302.2 369.169C302.989 369.958 303.936 370.369 305.073 370.369C306.178 370.369 307.125 369.958 307.914 369.169C308.703 368.38 309.114 367.432 309.114 366.296V355.372H314.45L324.552 368.758C325.247 369.642 326.131 370.179 327.236 370.337C328.341 370.495 329.351 370.211 330.267 369.548C331.151 368.885 331.656 367.969 331.814 366.864C331.972 365.759 331.719 364.749 331.025 363.865L323.7 354.141C326.384 352.973 328.531 351.173 330.172 348.742C331.846 346.248 332.666 343.47 332.666 340.47C332.666 336.397 331.214 332.893 328.341 329.988Z" fill="#00652E"/>
<path d="M348.073 325.568C346.936 325.568 345.989 325.979 345.2 326.768C344.41 327.557 344 328.505 344 329.641C344 330.746 344.41 331.693 345.2 332.483C345.989 333.272 346.936 333.682 348.073 333.682H356.881V366.296C356.881 367.432 357.292 368.38 358.081 369.169C358.87 369.958 359.849 370.369 360.954 370.369C362.059 370.369 363.038 369.958 363.827 369.169C364.616 368.38 364.995 367.432 364.995 366.296V333.682H373.835C374.94 333.682 375.919 333.272 376.708 332.483C377.498 331.693 377.908 330.746 377.908 329.641C377.908 328.505 377.498 327.557 376.708 326.768C375.919 325.979 374.94 325.568 373.835 325.568H348.073Z" fill="#00652E"/>
<path d="M421.319 325.663C420.214 325.916 419.393 326.515 418.793 327.463L407.648 345.301L396.503 327.463C395.904 326.515 395.083 325.916 393.978 325.663C392.873 325.41 391.862 325.568 390.915 326.168C389.968 326.768 389.368 327.62 389.116 328.725C388.863 329.799 389.021 330.809 389.621 331.788L403.576 354.141V366.296C403.576 367.432 403.986 368.38 404.775 369.169C405.565 369.958 406.543 370.369 407.648 370.369C408.753 370.369 409.732 369.958 410.521 369.169C411.311 368.38 411.689 367.432 411.689 366.296V354.141L425.676 331.788C426.276 330.809 426.433 329.799 426.181 328.725C425.928 327.62 425.328 326.768 424.381 326.168C423.434 325.568 422.424 325.41 421.319 325.663Z" fill="#00652E"/>
</svg>
